<svg width="1280" height="613" viewBox="0 0 1280 613" fill="none" xmlns="http://www.w3.org/2000/svg">
<g opacity="0.1" clip-path="url(#clip0_205_130)">
<mask id="mask0_205_130" style="mask-type:luminance" maskUnits="userSpaceOnUse" x="-148" y="0" width="1575" height="613">
<path d="M1427 0H-148V613H1427V0Z" fill="white"/>
</mask>
<g mask="url(#mask0_205_130)">
<path d="M282.62 570.517L353.659 611.566M282.62 570.517L211.57 611.566V693.664L282.62 734.713L353.659 693.664V611.566M282.62 570.517V488.419L353.659 447.37L424.709 488.419V570.517L353.659 611.566M637.837 611.566L566.787 570.517L495.748 611.566V693.664L566.787 734.713L637.837 693.664M637.837 611.566V693.664M637.837 611.566L708.877 570.517L779.916 611.566V693.664L708.877 734.713L637.837 693.664M779.916 201.075V118.977L708.877 77.9276L637.837 118.977V201.075L708.877 242.124M779.916 201.075L708.877 242.124M779.916 201.075L850.966 242.124V324.222L779.916 365.271L708.877 324.222V242.124M1206.18 365.271L1135.13 324.222L1064.09 365.271V447.37L1135.13 488.419L1206.18 447.37M1206.18 365.271V447.37M1206.18 365.271L1277.22 324.222L1348.26 365.271V447.37L1277.22 488.419L1206.18 447.37M-1.55786 570.517L69.4921 611.566V693.664L-1.55786 734.713L-72.5969 693.664V611.566L-1.55786 570.517ZM211.57 -45.2197L282.62 -4.17059V77.9276L211.57 118.977L140.531 77.9276V-4.17059L211.57 -45.2197ZM1277.22 77.9276L1348.26 118.977V201.075L1277.22 242.124L1206.18 201.075V118.977L1277.22 77.9276ZM1490.35 -45.2197L1561.4 -4.17059V77.9276L1490.35 118.977L1419.31 77.9276V-4.17059L1490.35 -45.2197ZM1490.35 201.075L1561.4 242.124V324.222L1490.35 365.271L1419.31 324.222V242.124L1490.35 201.075ZM1490.35 447.37L1561.4 488.419V570.517L1490.35 611.566L1419.31 570.517V488.419L1490.35 447.37Z" stroke="#D6CCAD" stroke-width="2"/>
<path d="M-9.76098 570.517C-9.76098 571.595 -9.5488 572.663 -9.13655 573.659C-8.7243 574.655 -8.12007 575.56 -7.35834 576.322C-6.59661 577.084 -5.69231 577.689 -4.69707 578.102C-3.70181 578.514 -2.63511 578.727 -1.55785 578.727C-0.480606 578.727 0.586105 578.514 1.58135 578.102C2.5766 577.689 3.4809 577.084 4.24263 576.322C5.00436 575.56 5.6086 574.655 6.02084 573.659C6.43308 572.663 6.64527 571.595 6.64527 570.517C6.64527 568.34 5.78101 566.251 4.24263 564.712C2.70425 563.172 0.617744 562.307 -1.55785 562.307C-3.73346 562.307 -5.81995 563.172 -7.35834 564.712C-8.89672 566.251 -9.76098 568.34 -9.76098 570.517ZM61.289 611.566C61.289 613.743 62.1533 615.832 63.6917 617.371C65.23 618.911 67.3166 619.776 69.4922 619.776C71.6678 619.776 73.7543 618.911 75.2926 617.371C76.831 615.832 77.6953 613.743 77.6953 611.566C77.6953 609.389 76.831 607.3 75.2926 605.761C73.7543 604.221 71.6678 603.356 69.4922 603.356C67.3166 603.356 65.23 604.221 63.6917 605.761C62.1533 607.3 61.289 609.389 61.289 611.566ZM61.289 693.664C61.289 695.842 62.1533 697.93 63.6917 699.469C65.23 701.009 67.3166 701.874 69.4922 701.874C71.6678 701.874 73.7543 701.009 75.2926 699.469C76.831 697.93 77.6953 695.842 77.6953 693.664C77.6953 691.487 76.831 689.399 75.2926 687.859C73.7543 686.319 71.6678 685.454 69.4922 685.454C67.3166 685.454 65.23 686.319 63.6917 687.859C62.1533 689.399 61.289 691.487 61.289 693.664ZM-9.76098 734.713C-9.76098 735.792 -9.5488 736.859 -9.13655 737.855C-8.7243 738.851 -8.12007 739.756 -7.35834 740.519C-6.59661 741.281 -5.69231 741.886 -4.69707 742.298C-3.70181 742.711 -2.63511 742.923 -1.55785 742.923C-0.480606 742.923 0.586105 742.711 1.58135 742.298C2.5766 741.886 3.4809 741.281 4.24263 740.519C5.00436 739.756 5.6086 738.851 6.02084 737.855C6.43308 736.859 6.64527 735.792 6.64527 734.713C6.64527 732.536 5.78101 730.448 4.24263 728.908C2.70425 727.369 0.617744 726.504 -1.55785 726.504C-3.73346 726.504 -5.81995 727.369 -7.35834 728.908C-8.89672 730.448 -9.76098 732.536 -9.76098 734.713ZM-80.8 693.664C-80.8 695.842 -79.9358 697.93 -78.3974 699.469C-76.859 701.009 -74.7725 701.874 -72.5969 701.874C-70.4213 701.874 -68.3348 701.009 -66.7964 699.469C-65.258 697.93 -64.3938 695.842 -64.3938 693.664C-64.3938 691.487 -65.258 689.399 -66.7964 687.859C-68.3348 686.319 -70.4213 685.454 -72.5969 685.454C-74.7725 685.454 -76.859 686.319 -78.3974 687.859C-79.9358 689.399 -80.8 691.487 -80.8 693.664ZM-80.8 611.566C-80.8 613.743 -79.9358 615.832 -78.3974 617.371C-76.859 618.911 -74.7725 619.776 -72.5969 619.776C-70.4213 619.776 -68.3348 618.911 -66.7964 617.371C-65.258 615.832 -64.3938 613.743 -64.3938 611.566C-64.3938 609.389 -65.258 607.3 -66.7964 605.761C-68.3348 604.221 -70.4213 603.356 -72.5969 603.356C-74.7725 603.356 -76.859 604.221 -78.3974 605.761C-79.9358 607.3 -80.8 609.389 -80.8 611.566ZM203.367 -45.2197C203.367 -43.0423 204.231 -40.9541 205.77 -39.4145C207.308 -37.8748 209.395 -37.0099 211.57 -37.0099C213.746 -37.0099 215.832 -37.8748 217.371 -39.4145C218.909 -40.9541 219.773 -43.0423 219.773 -45.2197C219.773 -47.3971 218.909 -49.4853 217.371 -51.0249C215.832 -52.5645 213.746 -53.4295 211.57 -53.4295C209.395 -53.4295 207.308 -52.5645 205.77 -51.0249C204.231 -49.4853 203.367 -47.3971 203.367 -45.2197ZM274.417 -4.17057C274.417 -1.99319 275.281 0.0950089 276.82 1.63465C278.358 3.17429 280.445 4.03925 282.62 4.03925C284.796 4.03925 286.882 3.17429 288.421 1.63465C289.959 0.0950089 290.823 -1.99319 290.823 -4.17057C290.823 -6.34795 289.959 -8.43615 288.421 -9.97579C286.882 -11.5154 284.796 -12.3804 282.62 -12.3804C280.445 -12.3804 278.358 -11.5154 276.82 -9.97579C275.281 -8.43615 274.417 -6.34795 274.417 -4.17057ZM274.417 77.9276C274.417 80.105 275.281 82.1932 276.82 83.7329C278.358 85.2725 280.445 86.1375 282.62 86.1375C284.796 86.1375 286.882 85.2725 288.421 83.7329C289.959 82.1932 290.823 80.105 290.823 77.9276C290.823 75.7503 289.959 73.6621 288.421 72.1224C286.882 70.5828 284.796 69.7178 282.62 69.7178C280.445 69.7178 278.358 70.5828 276.82 72.1224C275.281 73.6621 274.417 75.7503 274.417 77.9276ZM203.367 118.977C203.367 121.154 204.231 123.242 205.77 124.782C207.308 126.322 209.395 127.187 211.57 127.187C213.746 127.187 215.832 126.322 217.371 124.782C218.909 123.242 219.773 121.154 219.773 118.977C219.773 116.799 218.909 114.711 217.371 113.172C215.832 111.632 213.746 110.767 211.57 110.767C209.395 110.767 207.308 111.632 205.77 113.172C204.231 114.711 203.367 116.799 203.367 118.977ZM132.328 77.9276C132.328 80.105 133.192 82.1932 134.731 83.7329C136.269 85.2725 138.356 86.1375 140.531 86.1375C142.707 86.1375 144.793 85.2725 146.332 83.7329C147.87 82.1932 148.734 80.105 148.734 77.9276C148.734 75.7503 147.87 73.6621 146.332 72.1224C144.793 70.5828 142.707 69.7178 140.531 69.7178C138.356 69.7178 136.269 70.5828 134.731 72.1224C133.192 73.6621 132.328 75.7503 132.328 77.9276ZM132.328 -4.17057C132.328 -1.99319 133.192 0.0950089 134.731 1.63465C136.269 3.17429 138.356 4.03925 140.531 4.03925C142.707 4.03925 144.793 3.17429 146.332 1.63465C147.87 0.0950089 148.734 -1.99319 148.734 -4.17057C148.734 -6.34795 147.87 -8.43615 146.332 -9.97579C144.793 -11.5154 142.707 -12.3804 140.531 -12.3804C138.356 -12.3804 136.269 -11.5154 134.731 -9.97579C133.192 -8.43615 132.328 -6.34795 132.328 -4.17057ZM274.417 570.517C274.417 572.694 275.281 574.782 276.82 576.322C278.358 577.862 280.445 578.727 282.62 578.727C284.796 578.727 286.882 577.862 288.421 576.322C289.959 574.782 290.823 572.694 290.823 570.517C290.823 568.34 289.959 566.251 288.421 564.712C286.882 563.172 284.796 562.307 282.62 562.307C280.445 562.307 278.358 563.172 276.82 564.712C275.281 566.251 274.417 568.34 274.417 570.517ZM345.456 611.566C345.456 613.743 346.32 615.832 347.859 617.371C349.397 618.911 351.484 619.776 353.659 619.776C355.835 619.776 357.921 618.911 359.46 617.371C360.998 615.832 361.862 613.743 361.862 611.566C361.862 609.389 360.998 607.3 359.46 605.761C357.921 604.221 355.835 603.356 353.659 603.356C351.484 603.356 349.397 604.221 347.859 605.761C346.32 607.3 345.456 609.389 345.456 611.566ZM345.456 693.664C345.456 695.842 346.32 697.93 347.859 699.469C349.397 701.009 351.484 701.874 353.659 701.874C355.835 701.874 357.921 701.009 359.46 699.469C360.998 697.93 361.862 695.842 361.862 693.664C361.862 691.487 360.998 689.399 359.46 687.859C357.921 686.319 355.835 685.454 353.659 685.454C351.484 685.454 349.397 686.319 347.859 687.859C346.32 689.399 345.456 691.487 345.456 693.664ZM274.417 734.713C274.417 736.891 275.281 738.979 276.82 740.519C278.358 742.058 280.445 742.923 282.62 742.923C284.796 742.923 286.882 742.058 288.421 740.519C289.959 738.979 290.823 736.891 290.823 734.713C290.823 732.536 289.959 730.448 288.421 728.908C286.882 727.369 284.796 726.504 282.62 726.504C280.445 726.504 278.358 727.369 276.82 728.908C275.281 730.448 274.417 732.536 274.417 734.713ZM203.367 693.664C203.367 695.842 204.231 697.93 205.77 699.469C207.308 701.009 209.395 701.874 211.57 701.874C213.746 701.874 215.832 701.009 217.371 699.469C218.909 697.93 219.773 695.842 219.773 693.664C219.773 691.487 218.909 689.399 217.371 687.859C215.832 686.319 213.746 685.454 211.57 685.454C209.395 685.454 207.308 686.319 205.77 687.859C204.231 689.399 203.367 691.487 203.367 693.664ZM203.367 611.566C203.367 613.743 204.231 615.832 205.77 617.371C207.308 618.911 209.395 619.776 211.57 619.776C213.746 619.776 215.832 618.911 217.371 617.371C218.909 615.832 219.773 613.743 219.773 611.566C219.773 609.389 218.909 607.3 217.371 605.761C215.832 604.221 213.746 603.356 211.57 603.356C209.395 603.356 207.308 604.221 205.77 605.761C204.231 607.3 203.367 609.389 203.367 611.566ZM345.456 447.37C345.456 449.547 346.32 451.635 347.859 453.175C349.397 454.714 351.484 455.579 353.659 455.579C355.835 455.579 357.921 454.714 359.46 453.175C360.998 451.635 361.862 449.547 361.862 447.37C361.862 445.192 360.998 443.104 359.46 441.564C357.921 440.025 355.835 439.16 353.659 439.16C351.484 439.16 349.397 440.025 347.859 441.564C346.32 443.104 345.456 445.192 345.456 447.37ZM416.506 488.419C416.506 490.596 417.371 492.684 418.909 494.224C420.447 495.764 422.534 496.629 424.709 496.629C426.885 496.629 428.971 495.764 430.51 494.224C432.048 492.684 432.912 490.596 432.912 488.419C432.912 486.241 432.048 484.153 430.51 482.613C428.971 481.074 426.885 480.209 424.709 480.209C422.534 480.209 420.447 481.074 418.909 482.613C417.371 484.153 416.506 486.241 416.506 488.419ZM416.506 570.517C416.506 572.694 417.371 574.782 418.909 576.322C420.447 577.862 422.534 578.727 424.709 578.727C426.885 578.727 428.971 577.862 430.51 576.322C432.048 574.782 432.912 572.694 432.912 570.517C432.912 568.34 432.048 566.251 430.51 564.712C428.971 563.172 426.885 562.307 424.709 562.307C422.534 562.307 420.447 563.172 418.909 564.712C417.371 566.251 416.506 568.34 416.506 570.517ZM274.417 488.419C274.417 490.596 275.281 492.684 276.82 494.224C278.358 495.764 280.445 496.629 282.62 496.629C284.796 496.629 286.882 495.764 288.421 494.224C289.959 492.684 290.823 490.596 290.823 488.419C290.823 486.241 289.959 484.153 288.421 482.613C286.882 481.074 284.796 480.209 282.62 480.209C280.445 480.209 278.358 481.074 276.82 482.613C275.281 484.153 274.417 486.241 274.417 488.419ZM558.584 570.517C558.584 572.694 559.449 574.782 560.987 576.322C562.525 577.862 564.612 578.727 566.788 578.727C568.963 578.727 571.05 577.862 572.588 576.322C574.126 574.782 574.991 572.694 574.991 570.517C574.991 568.34 574.126 566.251 572.588 564.712C571.05 563.172 568.963 562.307 566.788 562.307C564.612 562.307 562.525 563.172 560.987 564.712C559.449 566.251 558.584 568.34 558.584 570.517ZM629.634 611.566C629.634 613.743 630.499 615.832 632.037 617.371C633.575 618.911 635.662 619.776 637.838 619.776C640.013 619.776 642.1 618.911 643.638 617.371C645.176 615.832 646.041 613.743 646.041 611.566C646.041 609.389 645.176 607.3 643.638 605.761C642.1 604.221 640.013 603.356 637.838 603.356C635.662 603.356 633.575 604.221 632.037 605.761C630.499 607.3 629.634 609.389 629.634 611.566ZM629.634 693.664C629.634 695.842 630.499 697.93 632.037 699.469C633.575 701.009 635.662 701.874 637.838 701.874C640.013 701.874 642.1 701.009 643.638 699.469C645.176 697.93 646.041 695.842 646.041 693.664C646.041 691.487 645.176 689.399 643.638 687.859C642.1 686.319 640.013 685.454 637.838 685.454C635.662 685.454 633.575 686.319 632.037 687.859C630.499 689.399 629.634 691.487 629.634 693.664ZM558.584 734.713C558.584 736.891 559.449 738.979 560.987 740.519C562.525 742.058 564.612 742.923 566.788 742.923C568.963 742.923 571.05 742.058 572.588 740.519C574.126 738.979 574.991 736.891 574.991 734.713C574.991 732.536 574.126 730.448 572.588 728.908C571.05 727.369 568.963 726.504 566.788 726.504C564.612 726.504 562.525 727.369 560.987 728.908C559.449 730.448 558.584 732.536 558.584 734.713ZM487.545 693.664C487.545 695.842 488.41 697.93 489.948 699.469C491.486 701.009 493.573 701.874 495.748 701.874C497.924 701.874 500.011 701.009 501.549 699.469C503.087 697.93 503.952 695.842 503.952 693.664C503.952 691.487 503.087 689.399 501.549 687.859C500.011 686.319 497.924 685.454 495.748 685.454C493.573 685.454 491.486 686.319 489.948 687.859C488.41 689.399 487.545 691.487 487.545 693.664ZM487.545 611.566C487.545 613.743 488.41 615.832 489.948 617.371C491.486 618.911 493.573 619.776 495.748 619.776C497.924 619.776 500.011 618.911 501.549 617.371C503.087 615.832 503.952 613.743 503.952 611.566C503.952 609.389 503.087 607.3 501.549 605.761C500.011 604.221 497.924 603.356 495.748 603.356C493.573 603.356 491.486 604.221 489.948 605.761C488.41 607.3 487.545 609.389 487.545 611.566ZM700.673 77.9276C700.673 80.105 701.538 82.1932 703.076 83.7329C704.615 85.2725 706.701 86.1375 708.877 86.1375C711.052 86.1375 713.139 85.2725 714.677 83.7329C716.215 82.1932 717.08 80.105 717.08 77.9276C717.08 75.7503 716.215 73.6621 714.677 72.1224C713.139 70.5828 711.052 69.7178 708.877 69.7178C706.701 69.7178 704.615 70.5828 703.076 72.1224C701.538 73.6621 700.673 75.7503 700.673 77.9276ZM771.713 118.977C771.713 121.154 772.577 123.242 774.115 124.782C775.654 126.322 777.74 127.187 779.916 127.187C782.091 127.187 784.178 126.322 785.716 124.782C787.255 123.242 788.119 121.154 788.119 118.977C788.119 116.799 787.255 114.711 785.716 113.172C784.178 111.632 782.091 110.767 779.916 110.767C777.74 110.767 775.654 111.632 774.115 113.172C772.577 114.711 771.713 116.799 771.713 118.977ZM771.713 201.075C771.713 203.252 772.577 205.341 774.115 206.88C775.654 208.42 777.74 209.285 779.916 209.285C782.091 209.285 784.178 208.42 785.716 206.88C787.255 205.341 788.119 203.252 788.119 201.075C788.119 198.898 787.255 196.809 785.716 195.27C784.178 193.73 782.091 192.865 779.916 192.865C777.74 192.865 775.654 193.73 774.115 195.27C772.577 196.809 771.713 198.898 771.713 201.075ZM700.673 242.124C700.673 244.301 701.538 246.39 703.076 247.929C704.615 249.469 706.701 250.334 708.877 250.334C711.052 250.334 713.139 249.469 714.677 247.929C716.215 246.39 717.08 244.301 717.08 242.124C717.08 239.947 716.215 237.859 714.677 236.319C713.139 234.779 711.052 233.914 708.877 233.914C706.701 233.914 704.615 234.779 703.076 236.319C701.538 237.859 700.673 239.947 700.673 242.124ZM629.634 201.075C629.634 203.252 630.499 205.341 632.037 206.88C633.575 208.42 635.662 209.285 637.838 209.285C640.013 209.285 642.1 208.42 643.638 206.88C645.176 205.341 646.041 203.252 646.041 201.075C646.041 198.898 645.176 196.809 643.638 195.27C642.1 193.73 640.013 192.865 637.838 192.865C635.662 192.865 633.575 193.73 632.037 195.27C630.499 196.809 629.634 198.898 629.634 201.075ZM629.634 118.977C629.634 121.154 630.499 123.242 632.037 124.782C633.575 126.322 635.662 127.187 637.838 127.187C640.013 127.187 642.1 126.322 643.638 124.782C645.176 123.242 646.041 121.154 646.041 118.977C646.041 116.799 645.176 114.711 643.638 113.172C642.1 111.632 640.013 110.767 637.838 110.767C635.662 110.767 633.575 111.632 632.037 113.172C630.499 114.711 629.634 116.799 629.634 118.977ZM700.673 570.517C700.673 572.694 701.538 574.782 703.076 576.322C704.615 577.862 706.701 578.727 708.877 578.727C711.052 578.727 713.139 577.862 714.677 576.322C716.215 574.782 717.08 572.694 717.08 570.517C717.08 568.34 716.215 566.251 714.677 564.712C713.139 563.172 711.052 562.307 708.877 562.307C706.701 562.307 704.615 563.172 703.076 564.712C701.538 566.251 700.673 568.34 700.673 570.517ZM771.713 611.566C771.713 613.743 772.577 615.832 774.115 617.371C775.654 618.911 777.74 619.776 779.916 619.776C782.091 619.776 784.178 618.911 785.716 617.371C787.255 615.832 788.119 613.743 788.119 611.566C788.119 609.389 787.255 607.3 785.716 605.761C784.178 604.221 782.091 603.356 779.916 603.356C777.74 603.356 775.654 604.221 774.115 605.761C772.577 607.3 771.713 609.389 771.713 611.566ZM771.713 693.664C771.713 695.842 772.577 697.93 774.115 699.469C775.654 701.009 777.74 701.874 779.916 701.874C782.091 701.874 784.178 701.009 785.716 699.469C787.255 697.93 788.119 695.842 788.119 693.664C788.119 691.487 787.255 689.399 785.716 687.859C784.178 686.319 782.091 685.454 779.916 685.454C777.74 685.454 775.654 686.319 774.115 687.859C772.577 689.399 771.713 691.487 771.713 693.664ZM700.673 734.713C700.673 736.891 701.538 738.979 703.076 740.519C704.615 742.058 706.701 742.923 708.877 742.923C711.052 742.923 713.139 742.058 714.677 740.519C716.215 738.979 717.08 736.891 717.08 734.713C717.08 732.536 716.215 730.448 714.677 728.908C713.139 727.369 711.052 726.504 708.877 726.504C706.701 726.504 704.615 727.369 703.076 728.908C701.538 730.448 700.673 732.536 700.673 734.713ZM842.763 242.124C842.763 244.301 843.627 246.39 845.165 247.929C846.704 249.469 848.79 250.334 850.966 250.334C853.141 250.334 855.228 249.469 856.766 247.929C858.305 246.39 859.169 244.301 859.169 242.124C859.169 239.947 858.305 237.859 856.766 236.319C855.228 234.779 853.141 233.914 850.966 233.914C848.79 233.914 846.704 234.779 845.165 236.319C843.627 237.859 842.763 239.947 842.763 242.124ZM842.763 324.222C842.763 326.4 843.627 328.488 845.165 330.027C846.704 331.567 848.79 332.432 850.966 332.432C853.141 332.432 855.228 331.567 856.766 330.027C858.305 328.488 859.169 326.4 859.169 324.222C859.169 322.045 858.305 319.957 856.766 318.417C855.228 316.877 853.141 316.012 850.966 316.012C848.79 316.012 846.704 316.877 845.165 318.417C843.627 319.957 842.763 322.045 842.763 324.222ZM771.713 365.271C771.713 367.449 772.577 369.537 774.115 371.077C775.654 372.616 777.74 373.481 779.916 373.481C782.091 373.481 784.178 372.616 785.716 371.077C787.255 369.537 788.119 367.449 788.119 365.271C788.119 363.094 787.255 361.006 785.716 359.466C784.178 357.927 782.091 357.062 779.916 357.062C777.74 357.062 775.654 357.927 774.115 359.466C772.577 361.006 771.713 363.094 771.713 365.271ZM700.673 324.222C700.673 326.4 701.538 328.488 703.076 330.027C704.615 331.567 706.701 332.432 708.877 332.432C711.052 332.432 713.139 331.567 714.677 330.027C716.215 328.488 717.08 326.4 717.08 324.222C717.08 322.045 716.215 319.957 714.677 318.417C713.139 316.877 711.052 316.012 708.877 316.012C706.701 316.012 704.615 316.877 703.076 318.417C701.538 319.957 700.673 322.045 700.673 324.222ZM1126.93 324.222C1126.93 326.4 1127.79 328.488 1129.33 330.027C1130.87 331.567 1132.96 332.432 1135.13 332.432C1137.31 332.432 1139.4 331.567 1140.93 330.027C1142.47 328.488 1143.34 326.4 1143.34 324.222C1143.34 322.045 1142.47 319.957 1140.93 318.417C1139.4 316.877 1137.31 316.012 1135.13 316.012C1132.96 316.012 1130.87 316.877 1129.33 318.417C1127.79 319.957 1126.93 322.045 1126.93 324.222ZM1197.98 365.271C1197.98 367.449 1198.84 369.537 1200.38 371.077C1201.92 372.616 1204.01 373.481 1206.18 373.481C1208.36 373.481 1210.45 372.616 1211.98 371.077C1213.52 369.537 1214.39 367.449 1214.39 365.271C1214.39 363.094 1213.52 361.006 1211.98 359.466C1210.45 357.927 1208.36 357.062 1206.18 357.062C1204.01 357.062 1201.92 357.927 1200.38 359.466C1198.84 361.006 1197.98 363.094 1197.98 365.271ZM1197.98 447.37C1197.98 449.547 1198.84 451.635 1200.38 453.175C1201.92 454.714 1204.01 455.579 1206.18 455.579C1208.36 455.579 1210.45 454.714 1211.98 453.175C1213.52 451.635 1214.39 449.547 1214.39 447.37C1214.39 445.192 1213.52 443.104 1211.98 441.564C1210.45 440.025 1208.36 439.16 1206.18 439.16C1204.01 439.16 1201.92 440.025 1200.38 441.564C1198.84 443.104 1197.98 445.192 1197.98 447.37ZM1126.93 488.419C1126.93 490.596 1127.79 492.684 1129.33 494.224C1130.87 495.764 1132.96 496.629 1135.13 496.629C1137.31 496.629 1139.4 495.764 1140.93 494.224C1142.47 492.684 1143.34 490.596 1143.34 488.419C1143.34 486.241 1142.47 484.153 1140.93 482.613C1139.4 481.074 1137.31 480.209 1135.13 480.209C1132.96 480.209 1130.87 481.074 1129.33 482.613C1127.79 484.153 1126.93 486.241 1126.93 488.419ZM1055.89 447.37C1055.89 449.547 1056.76 451.635 1058.29 453.175C1059.83 454.714 1061.92 455.579 1064.09 455.579C1066.27 455.579 1068.36 454.714 1069.89 453.175C1071.43 451.635 1072.3 449.547 1072.3 447.37C1072.3 445.192 1071.43 443.104 1069.89 441.564C1068.36 440.025 1066.27 439.16 1064.09 439.16C1061.92 439.16 1059.83 440.025 1058.29 441.564C1056.76 443.104 1055.89 445.192 1055.89 447.37ZM1055.89 365.271C1055.89 367.449 1056.76 369.537 1058.29 371.077C1059.83 372.616 1061.92 373.481 1064.09 373.481C1066.27 373.481 1068.36 372.616 1069.89 371.077C1071.43 369.537 1072.3 367.449 1072.3 365.271C1072.3 363.094 1071.43 361.006 1069.89 359.466C1068.36 357.927 1066.27 357.062 1064.09 357.062C1061.92 357.062 1059.83 357.927 1058.29 359.466C1056.76 361.006 1055.89 363.094 1055.89 365.271ZM1269.02 77.9276C1269.02 80.105 1269.88 82.1932 1271.42 83.7329C1272.96 85.2725 1275.05 86.1375 1277.22 86.1375C1279.4 86.1375 1281.48 85.2725 1283.02 83.7329C1284.56 82.1932 1285.43 80.105 1285.43 77.9276C1285.43 75.7503 1284.56 73.6621 1283.02 72.1224C1281.48 70.5828 1279.4 69.7178 1277.22 69.7178C1275.05 69.7178 1272.96 70.5828 1271.42 72.1224C1269.88 73.6621 1269.02 75.7503 1269.02 77.9276ZM1340.06 118.977C1340.06 121.154 1340.92 123.242 1342.46 124.782C1344 126.322 1346.09 127.187 1348.26 127.187C1350.44 127.187 1352.52 126.322 1354.06 124.782C1355.6 123.242 1356.46 121.154 1356.46 118.977C1356.46 116.799 1355.6 114.711 1354.06 113.172C1352.52 111.632 1350.44 110.767 1348.26 110.767C1346.09 110.767 1344 111.632 1342.46 113.172C1340.92 114.711 1340.06 116.799 1340.06 118.977ZM1340.06 201.075C1340.06 203.252 1340.92 205.341 1342.46 206.88C1344 208.42 1346.09 209.285 1348.26 209.285C1350.44 209.285 1352.52 208.42 1354.06 206.88C1355.6 205.341 1356.46 203.252 1356.46 201.075C1356.46 198.898 1355.6 196.809 1354.06 195.27C1352.52 193.73 1350.44 192.865 1348.26 192.865C1346.09 192.865 1344 193.73 1342.46 195.27C1340.92 196.809 1340.06 198.898 1340.06 201.075ZM1269.02 242.124C1269.02 244.301 1269.88 246.39 1271.42 247.929C1272.96 249.469 1275.05 250.334 1277.22 250.334C1279.4 250.334 1281.48 249.469 1283.02 247.929C1284.56 246.39 1285.43 244.301 1285.43 242.124C1285.43 239.947 1284.56 237.859 1283.02 236.319C1281.48 234.779 1279.4 233.914 1277.22 233.914C1275.05 233.914 1272.96 234.779 1271.42 236.319C1269.88 237.859 1269.02 239.947 1269.02 242.124ZM1197.98 201.075C1197.98 203.252 1198.84 205.341 1200.38 206.88C1201.92 208.42 1204.01 209.285 1206.18 209.285C1208.36 209.285 1210.45 208.42 1211.98 206.88C1213.52 205.341 1214.39 203.252 1214.39 201.075C1214.39 198.898 1213.52 196.809 1211.98 195.27C1210.45 193.73 1208.36 192.865 1206.18 192.865C1204.01 192.865 1201.92 193.73 1200.38 195.27C1198.84 196.809 1197.98 198.898 1197.98 201.075ZM1197.98 118.977C1197.98 121.154 1198.84 123.242 1200.38 124.782C1201.92 126.322 1204.01 127.187 1206.18 127.187C1208.36 127.187 1210.45 126.322 1211.98 124.782C1213.52 123.242 1214.39 121.154 1214.39 118.977C1214.39 116.799 1213.52 114.711 1211.98 113.172C1210.45 111.632 1208.36 110.767 1206.18 110.767C1204.01 110.767 1201.92 111.632 1200.38 113.172C1198.84 114.711 1197.98 116.799 1197.98 118.977ZM1269.02 324.222C1269.02 326.4 1269.88 328.488 1271.42 330.027C1272.96 331.567 1275.05 332.432 1277.22 332.432C1279.4 332.432 1281.48 331.567 1283.02 330.027C1284.56 328.488 1285.43 326.4 1285.43 324.222C1285.43 322.045 1284.56 319.957 1283.02 318.417C1281.48 316.877 1279.4 316.012 1277.22 316.012C1275.05 316.012 1272.96 316.877 1271.42 318.417C1269.88 319.957 1269.02 322.045 1269.02 324.222ZM1340.06 365.271C1340.06 367.449 1340.92 369.537 1342.46 371.077C1344 372.616 1346.09 373.481 1348.26 373.481C1350.44 373.481 1352.52 372.616 1354.06 371.077C1355.6 369.537 1356.46 367.449 1356.46 365.271C1356.46 363.094 1355.6 361.006 1354.06 359.466C1352.52 357.927 1350.44 357.062 1348.26 357.062C1346.09 357.062 1344 357.927 1342.46 359.466C1340.92 361.006 1340.06 363.094 1340.06 365.271ZM1340.06 447.37C1340.06 449.547 1340.92 451.635 1342.46 453.175C1344 454.714 1346.09 455.579 1348.26 455.579C1350.44 455.579 1352.52 454.714 1354.06 453.175C1355.6 451.635 1356.46 449.547 1356.46 447.37C1356.46 445.192 1355.6 443.104 1354.06 441.564C1352.52 440.025 1350.44 439.16 1348.26 439.16C1346.09 439.16 1344 440.025 1342.46 441.564C1340.92 443.104 1340.06 445.192 1340.06 447.37ZM1269.02 488.419C1269.02 490.596 1269.88 492.684 1271.42 494.224C1272.96 495.764 1275.05 496.629 1277.22 496.629C1279.4 496.629 1281.48 495.764 1283.02 494.224C1284.56 492.684 1285.43 490.596 1285.43 488.419C1285.43 486.241 1284.56 484.153 1283.02 482.613C1281.48 481.074 1279.4 480.209 1277.22 480.209C1275.05 480.209 1272.96 481.074 1271.42 482.613C1269.88 484.153 1269.02 486.241 1269.02 488.419ZM1482.15 -45.2197C1482.15 -43.0423 1483.01 -40.9541 1484.55 -39.4145C1486.09 -37.8748 1488.17 -37.0099 1490.35 -37.0099C1492.53 -37.0099 1494.61 -37.8748 1496.15 -39.4145C1497.69 -40.9541 1498.55 -43.0423 1498.55 -45.2197C1498.55 -47.3971 1497.69 -49.4853 1496.15 -51.0249C1494.61 -52.5645 1492.53 -53.4295 1490.35 -53.4295C1488.17 -53.4295 1486.09 -52.5645 1484.55 -51.0249C1483.01 -49.4853 1482.15 -47.3971 1482.15 -45.2197ZM1553.2 -4.17057C1553.2 -1.99319 1554.06 0.0950089 1555.6 1.63465C1557.14 3.17429 1559.22 4.03925 1561.4 4.03925C1563.58 4.03925 1565.66 3.17429 1567.2 1.63465C1568.74 0.0950089 1569.6 -1.99319 1569.6 -4.17057C1569.6 -6.34795 1568.74 -8.43615 1567.2 -9.97579C1565.66 -11.5154 1563.58 -12.3804 1561.4 -12.3804C1559.22 -12.3804 1557.14 -11.5154 1555.6 -9.97579C1554.06 -8.43615 1553.2 -6.34795 1553.2 -4.17057ZM1553.2 77.9276C1553.2 80.105 1554.06 82.1932 1555.6 83.7329C1557.14 85.2725 1559.22 86.1375 1561.4 86.1375C1563.58 86.1375 1565.66 85.2725 1567.2 83.7329C1568.74 82.1932 1569.6 80.105 1569.6 77.9276C1569.6 75.7503 1568.74 73.6621 1567.2 72.1224C1565.66 70.5828 1563.58 69.7178 1561.4 69.7178C1559.22 69.7178 1557.14 70.5828 1555.6 72.1224C1554.06 73.6621 1553.2 75.7503 1553.2 77.9276ZM1482.15 118.977C1482.15 121.154 1483.01 123.242 1484.55 124.782C1486.09 126.322 1488.17 127.187 1490.35 127.187C1492.53 127.187 1494.61 126.322 1496.15 124.782C1497.69 123.242 1498.55 121.154 1498.55 118.977C1498.55 116.799 1497.69 114.711 1496.15 113.172C1494.61 111.632 1492.53 110.767 1490.35 110.767C1488.17 110.767 1486.09 111.632 1484.55 113.172C1483.01 114.711 1482.15 116.799 1482.15 118.977ZM1411.11 77.9276C1411.11 80.105 1411.97 82.1932 1413.51 83.7329C1415.05 85.2725 1417.14 86.1375 1419.31 86.1375C1421.49 86.1375 1423.57 85.2725 1425.11 83.7329C1426.65 82.1932 1427.51 80.105 1427.51 77.9276C1427.51 75.7503 1426.65 73.6621 1425.11 72.1224C1423.57 70.5828 1421.49 69.7178 1419.31 69.7178C1417.14 69.7178 1415.05 70.5828 1413.51 72.1224C1411.97 73.6621 1411.11 75.7503 1411.11 77.9276ZM1411.11 -4.17057C1411.11 -1.99319 1411.97 0.0950089 1413.51 1.63465C1415.05 3.17429 1417.14 4.03925 1419.31 4.03925C1421.49 4.03925 1423.57 3.17429 1425.11 1.63465C1426.65 0.0950089 1427.51 -1.99319 1427.51 -4.17057C1427.51 -6.34795 1426.65 -8.43615 1425.11 -9.97579C1423.57 -11.5154 1421.49 -12.3804 1419.31 -12.3804C1417.14 -12.3804 1415.05 -11.5154 1413.51 -9.97579C1411.97 -8.43615 1411.11 -6.34795 1411.11 -4.17057ZM1482.15 201.075C1482.15 203.252 1483.01 205.341 1484.55 206.88C1486.09 208.42 1488.17 209.285 1490.35 209.285C1492.53 209.285 1494.61 208.42 1496.15 206.88C1497.69 205.341 1498.55 203.252 1498.55 201.075C1498.55 198.898 1497.69 196.809 1496.15 195.27C1494.61 193.73 1492.53 192.865 1490.35 192.865C1488.17 192.865 1486.09 193.73 1484.55 195.27C1483.01 196.809 1482.15 198.898 1482.15 201.075ZM1553.2 242.124C1553.2 244.301 1554.06 246.39 1555.6 247.929C1557.14 249.469 1559.22 250.334 1561.4 250.334C1563.58 250.334 1565.66 249.469 1567.2 247.929C1568.74 246.39 1569.6 244.301 1569.6 242.124C1569.6 239.947 1568.74 237.859 1567.2 236.319C1565.66 234.779 1563.58 233.914 1561.4 233.914C1559.22 233.914 1557.14 234.779 1555.6 236.319C1554.06 237.859 1553.2 239.947 1553.2 242.124ZM1553.2 324.222C1553.2 326.4 1554.06 328.488 1555.6 330.027C1557.14 331.567 1559.22 332.432 1561.4 332.432C1563.58 332.432 1565.66 331.567 1567.2 330.027C1568.74 328.488 1569.6 326.4 1569.6 324.222C1569.6 322.045 1568.74 319.957 1567.2 318.417C1565.66 316.877 1563.58 316.012 1561.4 316.012C1559.22 316.012 1557.14 316.877 1555.6 318.417C1554.06 319.957 1553.2 322.045 1553.2 324.222ZM1482.15 365.271C1482.15 367.449 1483.01 369.537 1484.55 371.077C1486.09 372.616 1488.17 373.481 1490.35 373.481C1492.53 373.481 1494.61 372.616 1496.15 371.077C1497.69 369.537 1498.55 367.449 1498.55 365.271C1498.55 363.094 1497.69 361.006 1496.15 359.466C1494.61 357.927 1492.53 357.062 1490.35 357.062C1488.17 357.062 1486.09 357.927 1484.55 359.466C1483.01 361.006 1482.15 363.094 1482.15 365.271ZM1411.11 324.222C1411.11 326.4 1411.97 328.488 1413.51 330.027C1415.05 331.567 1417.14 332.432 1419.31 332.432C1421.49 332.432 1423.57 331.567 1425.11 330.027C1426.65 328.488 1427.51 326.4 1427.51 324.222C1427.51 322.045 1426.65 319.957 1425.11 318.417C1423.57 316.877 1421.49 316.012 1419.31 316.012C1417.14 316.012 1415.05 316.877 1413.51 318.417C1411.97 319.957 1411.11 322.045 1411.11 324.222ZM1411.11 242.124C1411.11 244.301 1411.97 246.39 1413.51 247.929C1415.05 249.469 1417.14 250.334 1419.31 250.334C1421.49 250.334 1423.57 249.469 1425.11 247.929C1426.65 246.39 1427.51 244.301 1427.51 242.124C1427.51 239.947 1426.65 237.859 1425.11 236.319C1423.57 234.779 1421.49 233.914 1419.31 233.914C1417.14 233.914 1415.05 234.779 1413.51 236.319C1411.97 237.859 1411.11 239.947 1411.11 242.124ZM1482.15 447.37C1482.15 449.547 1483.01 451.635 1484.55 453.175C1486.09 454.714 1488.17 455.579 1490.35 455.579C1492.53 455.579 1494.61 454.714 1496.15 453.175C1497.69 451.635 1498.55 449.547 1498.55 447.37C1498.55 445.192 1497.69 443.104 1496.15 441.564C1494.61 440.025 1492.53 439.16 1490.35 439.16C1488.17 439.16 1486.09 440.025 1484.55 441.564C1483.01 443.104 1482.15 445.192 1482.15 447.37ZM1553.2 488.419C1553.2 490.596 1554.06 492.684 1555.6 494.224C1557.14 495.764 1559.22 496.629 1561.4 496.629C1563.58 496.629 1565.66 495.764 1567.2 494.224C1568.74 492.684 1569.6 490.596 1569.6 488.419C1569.6 486.241 1568.74 484.153 1567.2 482.613C1565.66 481.074 1563.58 480.209 1561.4 480.209C1559.22 480.209 1557.14 481.074 1555.6 482.613C1554.06 484.153 1553.2 486.241 1553.2 488.419ZM1553.2 570.517C1553.2 572.694 1554.06 574.782 1555.6 576.322C1557.14 577.862 1559.22 578.727 1561.4 578.727C1563.58 578.727 1565.66 577.862 1567.2 576.322C1568.74 574.782 1569.6 572.694 1569.6 570.517C1569.6 568.34 1568.74 566.251 1567.2 564.712C1565.66 563.172 1563.58 562.307 1561.4 562.307C1559.22 562.307 1557.14 563.172 1555.6 564.712C1554.06 566.251 1553.2 568.34 1553.2 570.517ZM1482.15 611.566C1482.15 613.743 1483.01 615.832 1484.55 617.371C1486.09 618.911 1488.17 619.776 1490.35 619.776C1492.53 619.776 1494.61 618.911 1496.15 617.371C1497.69 615.832 1498.55 613.743 1498.55 611.566C1498.55 609.389 1497.69 607.3 1496.15 605.761C1494.61 604.221 1492.53 603.356 1490.35 603.356C1488.17 603.356 1486.09 604.221 1484.55 605.761C1483.01 607.3 1482.15 609.389 1482.15 611.566ZM1411.11 570.517C1411.11 572.694 1411.97 574.782 1413.51 576.322C1415.05 577.862 1417.14 578.727 1419.31 578.727C1421.49 578.727 1423.57 577.862 1425.11 576.322C1426.65 574.782 1427.51 572.694 1427.51 570.517C1427.51 568.34 1426.65 566.251 1425.11 564.712C1423.57 563.172 1421.49 562.307 1419.31 562.307C1417.14 562.307 1415.05 563.172 1413.51 564.712C1411.97 566.251 1411.11 568.34 1411.11 570.517ZM1411.11 488.419C1411.11 490.596 1411.97 492.684 1413.51 494.224C1415.05 495.764 1417.14 496.629 1419.31 496.629C1421.49 496.629 1423.57 495.764 1425.11 494.224C1426.65 492.684 1427.51 490.596 1427.51 488.419C1427.51 486.241 1426.65 484.153 1425.11 482.613C1423.57 481.074 1421.49 480.209 1419.31 480.209C1417.14 480.209 1415.05 481.074 1413.51 482.613C1411.97 484.153 1411.11 486.241 1411.11 488.419Z" fill="#D6CCAD"/>
<path d="M-89.0579 517.449L-136.417 490.083L-183.777 517.449V572.181L-136.417 599.547M-89.0579 517.449V572.181M-89.0579 517.449L-41.6875 490.083L5.67182 517.449M-89.0579 572.181L-136.417 599.547M-89.0579 572.181L-41.6875 599.547M-136.417 599.547V654.279L-89.0579 681.645L-41.6875 654.279M-41.6875 599.547V654.279M-41.6875 599.547L5.67182 572.181M-41.6875 654.279L5.67182 681.645L53.0312 654.279M53.0312 325.886V271.154L5.67182 243.788L-41.6875 271.154V325.886L5.67182 353.252M53.0312 325.886L5.67182 353.252M53.0312 325.886L100.391 353.252V407.984L53.0312 435.35L5.67182 407.984V353.252M5.67182 517.449V572.181M5.67182 517.449L53.0312 490.083L100.391 517.449V572.181M5.67182 572.181L53.0312 599.547M53.0312 599.547V654.279M53.0312 599.547L100.391 572.181M53.0312 654.279L100.391 681.645L147.75 654.279V599.547L100.391 572.181M100.391 79.5915L147.75 106.958M100.391 79.5915L53.0312 106.958V161.69L100.391 189.056M100.391 79.5915V24.8594L147.75 -2.50671L195.12 24.8594V79.5915L147.75 106.958M147.75 106.958V161.69M147.75 161.69L100.391 189.056M147.75 161.69L195.12 189.056V243.788L147.75 271.154L100.391 243.788V189.056M289.839 79.5915L337.209 106.958M289.839 79.5915L242.48 106.958V161.69L289.839 189.056L337.209 161.69M289.839 79.5915V24.8594L337.209 -2.50671L384.569 24.8594M337.209 106.958V161.69M337.209 106.958L384.569 79.5915M337.209 161.69L384.569 189.056L431.928 161.69V106.958M337.209 325.886V271.154L289.839 243.788L242.48 271.154V325.886L289.839 353.252M337.209 325.886L289.839 353.252M337.209 325.886L384.569 353.252V407.984M289.839 353.252V407.984L337.209 435.35M289.839 517.449L242.48 490.083L195.12 517.449V572.181L242.48 599.547L289.839 572.181M289.839 517.449V572.181M289.839 517.449L337.209 490.083M289.839 572.181L337.209 599.547L384.569 572.181V517.449M384.569 24.8594V79.5915M384.569 24.8594L431.928 -2.50671L479.287 24.8594V79.5915L431.928 106.958M384.569 79.5915L431.928 106.958M384.569 407.984L337.209 435.35M384.569 407.984L431.928 435.35V490.083L384.569 517.449M337.209 435.35V490.083M384.569 517.449L337.209 490.083M574.017 243.788V189.056L526.658 161.69L479.287 189.056V243.788L526.658 271.154M574.017 243.788L526.658 271.154M574.017 243.788L621.377 271.154V325.886M526.658 271.154V325.886L574.017 353.252M621.377 325.886L574.017 353.252M621.377 325.886L668.736 353.252V407.984L621.377 435.35L574.017 407.984V353.252M716.106 161.69V106.958L668.736 79.5915L621.377 106.958V161.69L668.736 189.056M716.106 161.69L668.736 189.056M716.106 161.69L763.466 189.056M668.736 189.056V243.788L716.106 271.154L763.466 243.788M668.736 572.181V517.449L621.377 490.083L574.017 517.449V572.181L621.377 599.547M668.736 572.181L621.377 599.547M668.736 572.181L716.106 599.547V654.279L668.736 681.645L621.377 654.279V599.547M763.466 189.056V243.788M763.466 189.056L810.825 161.69L858.184 189.056M763.466 243.788L810.825 271.154L858.184 243.788M763.466 407.984L810.825 435.35M763.466 407.984L716.106 435.35V490.083L763.466 517.449L810.825 490.083M763.466 407.984V353.252L810.825 325.886L858.184 353.252V407.984M810.825 435.35V490.083M810.825 435.35L858.184 407.984M810.825 490.083L858.184 517.449L905.555 490.083M858.184 24.8594L810.825 -2.50671L763.466 24.8594V79.5915L810.825 106.958L858.184 79.5915M858.184 24.8594V79.5915M858.184 24.8594L905.555 -2.50671L952.914 24.8594V79.5915M858.184 79.5915L905.555 106.958M858.184 189.056V243.788M858.184 189.056L905.555 161.69M858.184 243.788L905.555 271.154L952.914 243.788M858.184 407.984L905.555 435.35M905.555 435.35V490.083M905.555 435.35L952.914 407.984M905.555 490.083L952.914 517.449M952.914 79.5915L905.555 106.958M952.914 79.5915L1000.27 106.958M905.555 106.958V161.69M1000.27 106.958V161.69M1000.27 106.958L1047.63 79.5915M1000.27 161.69L952.914 189.056M1000.27 161.69L1047.63 189.056M952.914 189.056L905.555 161.69M952.914 189.056V243.788M952.914 243.788L1000.27 271.154L1047.63 243.788M952.914 407.984L1000.27 435.35M952.914 407.984V353.252L1000.27 325.886L1047.63 353.252V407.984M1000.27 435.35V490.083M1000.27 435.35L1047.63 407.984M1000.27 490.083L952.914 517.449M1000.27 490.083L1047.63 517.449M952.914 517.449V572.181L1000.27 599.547M1047.63 79.5915L1094.99 106.958M1047.63 79.5915V24.8594L1094.99 -2.50671L1142.36 24.8594V79.5915M1094.99 106.958V161.69M1094.99 106.958L1142.36 79.5915M1094.99 161.69L1047.63 189.056M1094.99 161.69L1142.36 189.056M1047.63 189.056V243.788M1047.63 243.788L1094.99 271.154L1142.36 243.788V189.056M1047.63 407.984L1094.99 435.35M1094.99 435.35V490.083M1094.99 435.35L1142.36 407.984L1189.72 435.35V490.083L1142.36 517.449M1094.99 490.083L1047.63 517.449M1094.99 490.083L1142.36 517.449M1047.63 517.449V572.181M1047.63 572.181L1000.27 599.547M1047.63 572.181L1094.99 599.547M1000.27 599.547V654.279L1047.63 681.645L1094.99 654.279M1094.99 599.547V654.279M1094.99 599.547L1142.36 572.181M1094.99 654.279L1142.36 681.645L1189.72 654.279V599.547L1142.36 572.181M1142.36 79.5915L1189.72 106.958M1189.72 106.958V161.69M1189.72 106.958L1237.08 79.5915L1284.44 106.958V161.69M1189.72 161.69L1142.36 189.056M1189.72 161.69L1237.08 189.056M1142.36 517.449V572.181M1284.44 161.69L1237.08 189.056M1284.44 161.69L1331.81 189.056V243.788L1284.44 271.154L1237.08 243.788V189.056M-136.417 -2.50671L-89.0579 24.8594V79.5915L-136.417 106.958L-183.777 79.5915V24.8594L-136.417 -2.50671ZM-136.417 161.69L-89.0579 189.056V243.788L-136.417 271.154L-183.777 243.788V189.056L-136.417 161.69ZM479.287 572.181L526.658 599.547V654.279L479.287 681.645L431.928 654.279V599.547L479.287 572.181ZM1284.44 325.886L1331.81 353.252V407.984L1284.44 435.35L1237.08 407.984V353.252L1284.44 325.886ZM1331.81 572.181L1379.17 599.547V654.279L1331.81 681.645L1284.44 654.279V599.547L1331.81 572.181ZM1426.53 79.5915L1473.9 106.958V161.69L1426.53 189.056L1379.17 161.69V106.958L1426.53 79.5915ZM1426.53 243.788L1473.9 271.154V325.886L1426.53 353.252L1379.17 325.886V271.154L1426.53 243.788ZM1426.53 407.984L1473.9 435.35V490.083L1426.53 517.449L1379.17 490.083V435.35L1426.53 407.984Z" stroke="#756F5A" stroke-width="2"/>
</g>
</g>
<defs>
<clipPath id="clip0_205_130">
<rect width="1575" height="613" fill="white" transform="translate(-148)"/>
</clipPath>
</defs>
</svg>
