<svg width="70" height="70" viewBox="0 0 70 70" fill="none" xmlns="http://www.w3.org/2000/svg">
<path d="M16.6587 57.2628C16.6587 57.2628 14.7143 44.1378 26.381 44.1378C29.4841 46.2066 32.1427 47.6363 35.131 47.6302H35.0094C37.9977 47.6363 40.2673 45.5261 43.3705 43.4573C58.5085 43.4573 53.8705 57.2628 53.8705 57.2628" fill="#92D3F5"/>
<path d="M47.9278 57.2262V44.7087L43.5612 43.9462V50.99H26.181L26.1827 43.9462L21.6464 44.7087V57.2262H47.9278Z" fill="#61B2E4"/>
<path d="M35.9054 8.96953H34.1521C23.1707 9.00375 24.3863 19.9692 24.3863 19.9692C36.9195 14.4694 45.6714 19.9692 45.6714 19.9692C45.6714 19.9692 46.8869 9.00375 35.9054 8.96953Z" fill="#61B2E4"/>
<path d="M53.2041 37.111C53.7076 35.0181 55.4948 33.5702 57.5291 33.4021L56.4291 37.9102C56.5086 37.9252 59.0799 38.5418 59.159 38.5609L60.2587 33.9794C62.1422 35.0052 63.1822 37.2003 62.6566 39.385C62.193 41.3122 60.6385 42.685 58.807 43.0227L55.4795 56.8544C55.2251 57.9118 54.1618 58.5628 53.1043 58.3084C52.0469 58.054 51.3961 56.9906 51.6505 55.9332L54.978 42.1015C53.5006 40.9679 52.7405 39.0381 53.2041 37.111Z" fill="#9B9B9A"/>
<path d="M32.196 17.7484V15.5008C32.196 13.89 33.5018 12.5842 35.1127 12.5842C36.7236 12.5842 38.0293 13.89 38.0293 15.5008V17.7656" fill="white"/>
<path d="M24.7705 19.9017C25.3005 19.788 35.0747 14.6557 45.7297 20.2316L45.6946 20.3723C47.1602 25.7182 45.8646 26.4708 45.8646 26.4708L40.7508 20.3221C40.7508 20.3221 39.3136 23.0497 35.2536 22.7459C35.2536 22.7459 35.8828 20.5166 35.5389 19.2771C35.5389 19.2771 28.9178 23.6257 24.2128 25.6291L24.2057 25.6278L24.0877 25.6314C23.6412 25.7542 23.4021 21.5914 24.9183 19.9691" fill="#6A462F"/>
<path d="M35.2536 22.7459C37.3075 22.7729 39.2802 22.2447 41.1125 20.757L46.0958 27.2561C46.0958 34.8663 41.1603 41.0357 35.0721 41.0357C28.984 41.0357 24.0485 34.8663 24.0485 27.2561C24.0485 24.1417 35.5389 19.2771 35.5389 19.2771L35.2536 22.7459Z" fill="#FCEA2B"/>
<path d="M40.8084 26.2838C40.8084 27.3576 39.9368 28.2283 38.8639 28.2283C37.7911 28.2283 36.9195 27.3576 36.9195 26.2838C36.9195 25.211 37.7911 24.3394 38.8639 24.3394C39.9368 24.3394 40.8084 25.211 40.8084 26.2838Z" fill="black"/>
<path d="M33.0306 26.2838C33.0306 27.3576 32.159 28.2283 31.0861 28.2283C30.0133 28.2283 29.1417 27.3576 29.1417 26.2838C29.1417 25.211 30.0133 24.3394 31.0861 24.3394C32.159 24.3394 33.0306 25.211 33.0306 26.2838Z" fill="black"/>
<path d="M34.9749 36.0084C33.855 36.0084 32.7352 35.7302 31.6234 35.1743C31.143 34.9341 30.9484 34.3502 31.1885 33.8698C31.4282 33.3898 32.0112 33.1948 32.493 33.4349C34.1631 34.2704 35.7866 34.2704 37.4567 33.4349C37.9376 33.1948 38.521 33.3898 38.7612 33.8698C39.0015 34.3502 38.8068 34.9341 38.3264 35.1743C37.2146 35.7302 36.0947 36.0084 34.9749 36.0084Z" fill="black"/>
<path d="M24.0659 25.6119C23.9904 26.2632 23.9513 26.9293 23.9513 27.6068C23.9513 35.2171 28.8867 41.3863 34.9749 41.3863C41.0631 41.3863 45.9986 35.2171 45.9986 27.6068C45.9986 27.2221 45.9859 26.8411 45.9611 26.4644" stroke="black" stroke-width="2" stroke-miterlimit="10" stroke-linecap="round"/>
<path d="M50.3083 45.8779C48.8374 44.5487 46.6883 43.6407 43.5612 43.6407C40.4581 45.7095 37.7994 47.1392 34.8112 47.133H34.9327C31.9445 47.1392 29.286 45.7095 26.1827 43.6407C14.5161 43.6407 16.4605 56.2796 16.4605 56.2796" stroke="black" stroke-width="2" stroke-miterlimit="10" stroke-linecap="round" stroke-linejoin="round"/>
<path d="M53.2041 37.111C53.7076 35.0181 55.4948 33.5702 57.5291 33.4021L56.4291 37.9102C56.5086 37.9252 59.0799 38.5418 59.159 38.5609L60.2587 33.9794C62.1422 35.0052 63.1822 37.2003 62.6566 39.385C62.193 41.3122 60.6385 42.685 58.807 43.0227L55.4795 56.8544C55.2251 57.9118 54.1618 58.5628 53.1043 58.3084C52.0469 58.054 51.3961 56.9906 51.6505 55.9332L54.978 42.1015C53.5006 40.9679 52.7405 39.0381 53.2041 37.111Z" stroke="black" stroke-width="2" stroke-miterlimit="10" stroke-linecap="round" stroke-linejoin="round"/>
<path d="M32.196 17.7484V15.5008C32.196 13.89 33.5018 12.5842 35.1127 12.5842C36.7236 12.5842 38.0293 13.89 38.0293 15.5008V17.7656" stroke="black" stroke-width="2" stroke-miterlimit="10" stroke-linecap="round"/>
<path d="M43.5612 43.6407V50.6846H26.181L26.1827 43.6407" stroke="black" stroke-width="2" stroke-miterlimit="10" stroke-linecap="round" stroke-linejoin="round"/>
<path d="M47.9278 44.4032V56.2592" stroke="black" stroke-width="2" stroke-miterlimit="10" stroke-linecap="round" stroke-linejoin="round"/>
<path d="M21.6464 44.4859V56.2592" stroke="black" stroke-width="2" stroke-miterlimit="10" stroke-linecap="round" stroke-linejoin="round"/>
<path d="M31.6985 55.2004H26.181" stroke="black" stroke-width="2" stroke-miterlimit="10" stroke-linecap="round" stroke-linejoin="round"/>
<path d="M45.6714 19.9692C45.6714 19.9692 46.8869 9.00375 35.9054 8.96953H34.1521C23.1707 9.00375 24.3863 19.9692 24.3863 19.9692" stroke="black" stroke-width="2" stroke-miterlimit="10" stroke-linecap="round" stroke-linejoin="round"/>
<path d="M48.4253 21.7857C42.4089 16.9415 31.9247 16.4543 25.0622 19.7072C23.8461 20.2838 22.7437 20.9777 21.8 21.7857" stroke="black" stroke-width="2" stroke-miterlimit="10" stroke-linecap="round" stroke-linejoin="round"/>
<path d="M24.7705 19.9017C25.3005 19.788 35.0747 14.6557 45.7297 20.2316L45.6946 20.3723C47.1602 25.7182 45.8646 26.4708 45.8646 26.4708L40.7508 20.3221C40.7508 20.3221 39.3136 23.0497 35.2536 22.7459C35.2536 22.7459 35.8828 20.5166 35.5389 19.2771C35.5389 19.2771 28.9178 23.6257 24.2128 25.6291L24.2057 25.6278L24.0877 25.6314C23.6412 25.7542 23.4021 21.5914 24.9183 19.9691" stroke="black" stroke-width="2" stroke-miterlimit="10" stroke-linecap="round" stroke-linejoin="round"/>
</svg>
