<svg width="147" height="46" viewBox="0 0 147 46" fill="none" xmlns="http://www.w3.org/2000/svg">
<path d="M35.5124 17.6993L24.2128 26.2395L23.7522 26.549L22.4036 22.6929L31.8585 12.2534C31.797 11.5314 31.7111 9.78413 31.8585 8.57117C32.0427 7.05497 33.8236 5.10557 36.5871 4.36294C38.7979 3.76884 39.5758 1.20677 39.6884 0H39.9647C39.9647 3.24281 42.237 4.48671 44.5092 5.10557C37.1705 7.76665 36.1868 8.94248 37.6925 11.913C39.4366 15.3538 43.6187 12.4184 45.4918 10.5206C47.4876 16.5235 38.89 19.5559 35.5124 17.6993Z" fill="#F46E29"/>
<path fill-rule="evenodd" clip-rule="evenodd" d="M20.8802 21.8254C21.661 22.0134 22.7182 22.5671 23.378 23.6252C24.0426 24.691 24.3014 26.264 23.4761 28.4809L26.9385 32.3927L25.3973 33.9199L21.8857 30.0084C21.5214 30.1574 20.8615 30.3325 20.0874 30.3842C19.3068 30.4362 18.4083 30.3628 17.5786 30.0087L14.208 33.9003L14.1914 33.9194L12.5244 32.3927L16.0844 28.6816C15.9113 28.3821 15.6829 27.859 15.5466 27.2387C15.4092 26.6135 15.3651 25.8878 15.5668 25.1925L10.9208 23.2361L10.8972 23.2261L10.9079 23.2027L11.8072 21.2398L16.4255 23.4294C16.6774 22.9641 17.4535 22.029 18.6581 21.8241V16.7211H20.8802V21.8254ZM19.6704 23.6857C18.3205 23.6857 17.2261 24.7882 17.2261 26.1482C17.2261 27.5082 18.3205 28.6107 19.6704 28.6107C21.0203 28.6107 22.1146 27.5082 22.1146 26.1482C22.1146 24.7882 21.0203 23.6857 19.6704 23.6857Z" fill="#C1B799"/>
<path d="M19.6624 6.34718C23.2258 6.34718 26.5678 7.30303 29.4501 8.97431L29.4205 9.0193C28.4317 9.77023 27.4614 10.9292 26.4497 12.4614C24.4069 11.4313 22.1018 10.8516 19.6624 10.8516C11.2703 10.8516 4.46718 17.7115 4.46718 26.1736C4.46718 34.6357 11.2703 41.4955 19.6624 41.4955C28.0544 41.4955 34.8576 34.6357 34.8576 26.1736C34.8576 25.2918 34.7836 24.4274 34.6418 23.5864C35.9494 23.036 37.3039 22.3929 38.8015 21.6112C39.1436 23.076 39.3247 24.6035 39.3247 26.1736C39.3247 37.1234 30.5216 46 19.6624 46C8.80314 46 0 37.1234 0 26.1736C0 15.2238 8.80314 6.34718 19.6624 6.34718Z" fill="#C1B799"/>
<path d="M19.6962 14.4006C21.4608 14.4006 23.1336 14.7965 24.6322 15.505C24.2261 16.2402 23.8091 17.0257 23.3782 17.8598C22.2543 17.3508 21.0081 17.0676 19.6962 17.0676C14.7274 17.0676 10.6994 21.1292 10.6994 26.1395C10.6994 31.1497 14.7274 35.2113 19.6962 35.2113C24.665 35.2113 28.693 31.1497 28.693 26.1395C28.693 25.962 28.6878 25.7858 28.6778 25.6109C29.574 25.3689 30.4285 25.1173 31.2676 24.8437C31.3139 25.2692 31.338 25.7015 31.338 26.1395C31.338 32.6227 26.1258 37.8783 19.6962 37.8783C13.2667 37.8783 8.05447 32.6227 8.05447 26.1395C8.05447 19.6563 13.2667 14.4006 19.6962 14.4006Z" fill="#C1B799"/>
<path d="M53.0684 24.6574C52.7145 24.0976 52.3673 23.4711 52.0268 22.7779C51.6906 22.0803 51.3854 21.3649 51.1112 20.6318C50.837 19.8942 50.6181 19.1855 50.4544 18.5057C50.2908 17.8214 50.209 17.2105 50.209 16.6728C50.209 16.5573 50.2333 16.4662 50.2819 16.3995C50.3837 16.2574 50.5075 16.1107 50.6535 15.9597C50.8038 15.8041 50.9807 15.642 51.1842 15.4731C51.2505 15.4198 51.3125 15.3931 51.37 15.3931C51.4275 15.3931 51.485 15.4198 51.5425 15.4731C51.7503 15.642 51.9272 15.8041 52.0732 15.9597C52.2192 16.1107 52.343 16.2574 52.4447 16.3995C52.4934 16.4662 52.5177 16.564 52.5177 16.6928V16.6661C52.5177 17.0438 52.5686 17.4993 52.6703 18.0325C52.7764 18.5612 52.9202 19.1189 53.1015 19.7054C53.2873 20.2874 53.4974 20.854 53.7318 21.4049C53.9706 21.9515 54.2249 22.4291 54.4947 22.8379H54.5345C54.8309 22.4291 55.0985 21.9537 55.3373 21.4116C55.5806 20.8651 55.7884 20.3008 55.9609 19.7187C56.1378 19.1366 56.2727 18.5812 56.3656 18.0525C56.4629 17.5193 56.5116 17.0594 56.5116 16.6728V16.6928C56.5116 16.564 56.5337 16.4662 56.5779 16.3995C56.7902 16.1063 57.0821 15.7975 57.4537 15.4731C57.5244 15.4198 57.5863 15.3931 57.6394 15.3931C57.6881 15.3931 57.7456 15.4198 57.8119 15.4731C58.0109 15.642 58.1812 15.8041 58.3228 15.9597C58.4643 16.1107 58.5859 16.2574 58.6876 16.3995C58.7319 16.4706 58.754 16.5662 58.754 16.6861C58.754 17.0905 58.6965 17.5593 58.5815 18.0925C58.4709 18.6212 58.3183 19.1811 58.1237 19.772C57.9291 20.363 57.708 20.9539 57.4603 21.5449C57.2126 22.1359 56.9517 22.7002 56.6774 23.2378C56.4032 23.771 56.129 24.2442 55.8548 24.6574C55.6248 25.0085 55.3108 25.184 54.9127 25.184H53.9972C53.5991 25.184 53.2895 25.0085 53.0684 24.6574ZM50.209 16.6661V16.6728V16.6928V16.6661ZM58.754 16.6728V16.6928V16.6861V16.6728Z" fill="#C1B799"/>
<path d="M64.4691 25.3439C63.6376 25.3439 62.9277 25.2351 62.3394 25.0174C61.7556 24.7996 61.3089 24.4175 60.9993 23.871C60.6941 23.3245 60.5415 22.558 60.5415 21.5716V16.6928C60.5415 16.564 60.5637 16.4662 60.6079 16.3995C60.8069 16.1063 61.0856 15.7975 61.4438 15.4731C61.5102 15.4198 61.5677 15.3931 61.6163 15.3931C61.6694 15.3931 61.7247 15.4198 61.7822 15.4731C61.9768 15.642 62.1404 15.8041 62.2731 15.9597C62.4058 16.1107 62.5208 16.2574 62.6181 16.3995C62.6623 16.4706 62.6844 16.5684 62.6844 16.6928V21.2383C62.6844 21.8737 62.7508 22.358 62.8835 22.6913C63.0206 23.0201 63.2218 23.2445 63.4872 23.3644C63.7526 23.4844 64.0799 23.5444 64.4691 23.5444C64.8671 23.5444 65.1988 23.4844 65.4642 23.3644C65.7296 23.2445 65.9286 23.0201 66.0613 22.6913C66.194 22.358 66.2603 21.8737 66.2603 21.2383V16.6928C66.2603 16.564 66.2825 16.4662 66.3267 16.3995C66.5257 16.1063 66.8044 15.7975 67.1626 15.4731C67.229 15.4198 67.2865 15.3931 67.3351 15.3931C67.3882 15.3931 67.4435 15.4198 67.501 15.4731C67.6956 15.642 67.8592 15.8041 67.9919 15.9597C68.1246 16.1107 68.2396 16.2574 68.3369 16.3995C68.3811 16.4706 68.4032 16.5684 68.4032 16.6928V21.5716C68.4032 22.558 68.2352 23.3245 67.899 23.871C67.5629 24.4175 67.0985 24.7996 66.5058 25.0174C65.9176 25.2351 65.2387 25.3439 64.4691 25.3439Z" fill="#C1B799"/>
<path d="M72.4995 25.184C72.044 25.184 71.6968 25.1262 71.4579 25.0107C71.2235 24.8952 71.0643 24.7063 70.9803 24.4442C70.9007 24.182 70.8609 23.8332 70.8609 23.3978V16.6928C70.8609 16.564 70.883 16.4662 70.9272 16.3995C71.1262 16.1063 71.4049 15.7975 71.7631 15.4731C71.8295 15.4198 71.887 15.3931 71.9356 15.3931C71.9887 15.3931 72.044 15.4198 72.1015 15.4731C72.2961 15.642 72.4597 15.8041 72.5924 15.9597C72.7251 16.1107 72.8401 16.2574 72.9374 16.3995C72.9816 16.4706 73.0038 16.5684 73.0038 16.6928V22.6046C73.0038 22.9023 73.0568 23.1156 73.163 23.2445C73.2691 23.3733 73.4682 23.4378 73.7601 23.4378L75.7968 23.4311C75.903 23.4311 75.9826 23.4489 76.0356 23.4844C76.1506 23.5644 76.2701 23.6599 76.3939 23.771C76.5177 23.8821 76.6482 24.0154 76.7853 24.1709C76.8296 24.2287 76.8517 24.2753 76.8517 24.3109C76.8517 24.3509 76.8296 24.3953 76.7853 24.4442C76.6482 24.5997 76.5177 24.733 76.3939 24.8441C76.2701 24.9551 76.1506 25.0507 76.0356 25.1307C75.9737 25.1662 75.8941 25.184 75.7968 25.184H72.4995Z" fill="#C1B799"/>
<path d="M81.9896 23.5511C82.3124 23.5511 82.5645 23.5177 82.7459 23.4511C82.9316 23.3844 83.0754 23.3022 83.1771 23.2045C83.2788 23.1067 83.3673 23.009 83.4425 22.9112C83.5133 22.8224 83.5708 22.7557 83.615 22.7113C83.6636 22.6668 83.73 22.6357 83.814 22.618C83.8848 22.5957 83.9976 22.5824 84.1524 22.578C84.3116 22.5691 84.4686 22.5646 84.6234 22.5646C84.7826 22.5646 84.8932 22.5691 84.9551 22.578C85.048 22.5824 85.1121 22.6002 85.1475 22.6313C85.1829 22.6624 85.205 22.729 85.2139 22.8312C85.2271 22.9734 85.2338 23.1423 85.2338 23.3378C85.2382 23.5333 85.236 23.7021 85.2271 23.8443C85.2227 23.8887 85.2139 23.9265 85.2006 23.9576C85.1917 23.9887 85.1696 24.0354 85.1342 24.0976C85.09 24.1687 85.0038 24.2731 84.8755 24.4108C84.7472 24.5441 84.5593 24.6841 84.3116 24.8307C84.0639 24.9729 83.7432 25.0951 83.3496 25.1973C82.9604 25.2995 82.4805 25.3506 81.91 25.3506C81.2996 25.3506 80.729 25.2728 80.1983 25.1173C79.6675 24.9574 79.2009 24.6908 78.7984 24.3175C78.4004 23.9443 78.0886 23.44 77.863 22.8046C77.6419 22.1692 77.5313 21.3761 77.5313 20.4252C77.5313 19.3677 77.7126 18.4701 78.0753 17.7325C78.4424 16.9905 78.9621 16.4262 79.6344 16.0396C80.3067 15.6531 81.1028 15.4598 82.0227 15.4598C82.6685 15.4598 83.186 15.5264 83.5752 15.6597C83.9688 15.793 84.2674 15.9508 84.4708 16.133C84.6743 16.3107 84.818 16.4662 84.902 16.5995C84.933 16.6484 84.9551 16.6928 84.9684 16.7328C84.9817 16.7683 84.9905 16.8261 84.9949 16.9061C85.0082 17.0127 85.0104 17.1682 85.0016 17.3726C84.9971 17.577 84.9817 17.757 84.9551 17.9125C84.9374 18.0102 84.9087 18.0747 84.8689 18.1058C84.8512 18.1236 84.8202 18.1391 84.776 18.1524C84.7318 18.1658 84.6654 18.1724 84.577 18.1724C84.4354 18.1724 84.2762 18.168 84.0993 18.1591C83.9224 18.1458 83.7897 18.1324 83.7012 18.1191C83.5951 18.1013 83.5177 18.0769 83.469 18.0458C83.4204 18.0102 83.3717 17.9569 83.3231 17.8858C83.2435 17.7703 83.1064 17.637 82.9117 17.4859C82.7171 17.3349 82.3965 17.2593 81.9498 17.2593C81.3217 17.2593 80.8042 17.5037 80.3973 17.9925C79.9904 18.4768 79.787 19.2633 79.787 20.3519C79.787 21.436 79.9993 22.2403 80.4239 22.7646C80.8529 23.2889 81.3748 23.5511 81.9896 23.5511Z" fill="#C1B799"/>
<path d="M92.2293 16.1529C92.4725 16.4951 92.7202 16.9372 92.9723 17.4793C93.2288 18.0169 93.4765 18.6079 93.7154 19.2522C93.9542 19.8964 94.1687 20.5563 94.3589 21.2316C94.5535 21.9026 94.7127 22.5491 94.8366 23.1712C94.9604 23.7932 95.0312 24.3464 95.0489 24.8307C95.0533 25.0662 94.9471 25.184 94.7304 25.184H93.1249C92.917 25.184 92.8087 25.0796 92.7998 24.8707C92.7821 24.3731 92.7025 23.7688 92.561 23.0579H88.9386C88.8148 23.751 88.744 24.3553 88.7263 24.8707C88.7175 25.0796 88.6047 25.184 88.388 25.184H86.8157C86.736 25.184 86.6697 25.1618 86.6166 25.1173C86.5635 25.0684 86.5392 24.9862 86.5436 24.8707C86.5658 24.3775 86.6365 23.8177 86.7559 23.1912C86.8798 22.5602 87.039 21.907 87.2336 21.2316C87.4282 20.5563 87.6449 19.8964 87.8838 19.2522C88.1226 18.6034 88.3703 18.0102 88.6268 17.4726C88.8834 16.935 89.1333 16.4951 89.3765 16.1529C89.5048 15.9708 89.6397 15.8375 89.7812 15.753C89.9272 15.6686 90.1063 15.6264 90.3186 15.6264H91.2739C91.4906 15.6264 91.672 15.6686 91.8179 15.753C91.9639 15.8375 92.101 15.9708 92.2293 16.1529ZM90.7299 17.7325C90.438 18.1991 90.1704 18.7567 89.9272 19.4054C89.6839 20.0542 89.4738 20.7207 89.2969 21.4049H92.1762C91.9904 20.7207 91.7759 20.0542 91.5327 19.4054C91.2894 18.7567 91.0351 18.1991 90.7697 17.7325H90.7299Z" fill="#C1B799"/>
<path d="M99.039 24.8307C99.039 24.964 99.0125 25.0573 98.9594 25.1107C98.9108 25.1595 98.8223 25.184 98.694 25.184H97.3605C97.2367 25.184 97.1482 25.1595 97.0952 25.1107C97.0421 25.0573 97.0155 24.964 97.0155 24.8307V16.3862C97.0155 16.1241 97.0664 15.933 97.1681 15.813C97.2699 15.6886 97.449 15.6264 97.7055 15.6264H98.3225C98.5481 15.6264 98.7604 15.6575 98.9594 15.7197C99.1629 15.7775 99.3774 15.9108 99.6029 16.1196C99.8329 16.3285 100.098 16.6528 100.399 17.0927C100.704 17.5282 101.071 18.1236 101.5 18.8789C101.912 19.5987 102.241 20.1741 102.489 20.6051C102.741 21.0361 102.936 21.3649 103.073 21.5916C103.21 21.8182 103.312 21.9803 103.378 22.0781C103.449 22.1759 103.506 22.2558 103.55 22.318V16.6928C103.55 16.564 103.57 16.4662 103.61 16.3995C103.8 16.1063 104.063 15.7975 104.4 15.4731C104.466 15.4198 104.521 15.3931 104.565 15.3931C104.614 15.3931 104.667 15.4198 104.725 15.4731C104.906 15.642 105.059 15.8041 105.182 15.9597C105.311 16.1107 105.421 16.2574 105.514 16.3995C105.554 16.4706 105.574 16.5684 105.574 16.6928V24.6308C105.574 24.8307 105.536 24.9729 105.461 25.0573C105.386 25.1418 105.249 25.184 105.05 25.184H104.413C104.223 25.184 104.028 25.1529 103.829 25.0907C103.63 25.024 103.404 24.8774 103.152 24.6508C102.9 24.4197 102.602 24.062 102.257 23.5777C101.912 23.0934 101.496 22.4313 101.009 21.5916C100.598 20.8762 100.269 20.3074 100.021 19.8853C99.7776 19.4632 99.5919 19.1455 99.4636 18.9322C99.3354 18.7145 99.2425 18.5634 99.185 18.479C99.1275 18.3902 99.0788 18.3235 99.039 18.2791V24.8307Z" fill="#C1B799"/>
<path d="M110.247 24.8307C110.247 24.964 110.219 25.0573 110.161 25.1107C110.108 25.1595 110.015 25.184 109.882 25.184H108.469C108.337 25.184 108.242 25.1595 108.184 25.1107C108.131 25.0573 108.104 24.964 108.104 24.8307V16.6928C108.104 16.564 108.127 16.4662 108.171 16.3995C108.37 16.1063 108.648 15.7975 109.007 15.4731C109.073 15.4198 109.131 15.3931 109.179 15.3931C109.232 15.3931 109.288 15.4198 109.345 15.4731C109.54 15.642 109.703 15.8041 109.836 15.9597C109.969 16.1107 110.084 16.2574 110.181 16.3995C110.225 16.4706 110.247 16.5684 110.247 16.6928V24.8307Z" fill="#C1B799"/>
<path d="M112.904 25.184C112.338 25.184 112.055 24.9463 112.055 24.4708C112.055 24.3198 112.084 24.1753 112.141 24.0376C112.199 23.8954 112.302 23.7221 112.453 23.5177L117.011 17.3793H113.216C113.11 17.3793 113.03 17.3615 112.977 17.326C112.862 17.246 112.743 17.1505 112.619 17.0394C112.499 16.9283 112.369 16.795 112.227 16.6395C112.183 16.5817 112.161 16.5351 112.161 16.4995C112.161 16.4595 112.183 16.4151 112.227 16.3662C112.369 16.2107 112.499 16.0774 112.619 15.9663C112.743 15.8552 112.862 15.7597 112.977 15.6797C113.039 15.6442 113.119 15.6264 113.216 15.6264H118.974C119.554 15.6264 119.844 15.8664 119.844 16.3462C119.844 16.5151 119.81 16.6706 119.744 16.8128C119.678 16.955 119.58 17.1149 119.452 17.2927L114.921 23.4378L119.067 23.4311C119.173 23.4311 119.253 23.4489 119.306 23.4844C119.421 23.5644 119.541 23.6599 119.664 23.771C119.788 23.8821 119.919 24.0154 120.056 24.1709C120.1 24.2287 120.122 24.2753 120.122 24.3109C120.122 24.3509 120.1 24.3953 120.056 24.4442C119.919 24.5997 119.788 24.733 119.664 24.8441C119.541 24.9551 119.421 25.0507 119.306 25.1307C119.244 25.1662 119.165 25.184 119.067 25.184H112.904Z" fill="#C1B799"/>
<path d="M126.912 16.1529C127.155 16.4951 127.403 16.9372 127.655 17.4793C127.912 18.0169 128.159 18.6079 128.398 19.2522C128.637 19.8964 128.851 20.5563 129.042 21.2316C129.236 21.9026 129.395 22.5491 129.519 23.1712C129.643 23.7932 129.714 24.3464 129.732 24.8307C129.736 25.0662 129.63 25.184 129.413 25.184H127.808C127.6 25.184 127.491 25.0796 127.483 24.8707C127.465 24.3731 127.385 23.7688 127.244 23.0579H123.621C123.498 23.751 123.427 24.3553 123.409 24.8707C123.4 25.0796 123.287 25.184 123.071 25.184H121.498C121.419 25.184 121.352 25.1618 121.299 25.1173C121.246 25.0684 121.222 24.9862 121.226 24.8707C121.248 24.3775 121.319 23.8177 121.439 23.1912C121.563 22.5602 121.722 21.907 121.916 21.2316C122.111 20.5563 122.328 19.8964 122.567 19.2522C122.805 18.6034 123.053 18.0102 123.31 17.4726C123.566 16.935 123.816 16.4951 124.059 16.1529C124.188 15.9708 124.322 15.8375 124.464 15.753C124.61 15.6686 124.789 15.6264 125.001 15.6264H125.957C126.173 15.6264 126.355 15.6686 126.501 15.753C126.647 15.8375 126.784 15.9708 126.912 16.1529ZM125.413 17.7325C125.121 18.1991 124.853 18.7567 124.61 19.4054C124.367 20.0542 124.157 20.7207 123.98 21.4049H126.859C126.673 20.7207 126.459 20.0542 126.215 19.4054C125.972 18.7567 125.718 18.1991 125.452 17.7325H125.413Z" fill="#C1B799"/>
<path d="M133.841 24.8307C133.841 24.964 133.812 25.0573 133.755 25.1107C133.702 25.1595 133.609 25.184 133.476 25.184H132.063C131.93 25.184 131.835 25.1595 131.778 25.1107C131.725 25.0573 131.698 24.964 131.698 24.8307V17.4126C131.698 16.9683 131.738 16.6173 131.818 16.3596C131.902 16.0974 132.061 15.9108 132.295 15.7997C132.534 15.6842 132.881 15.6264 133.337 15.6264H135.095C137.404 15.6264 138.558 16.5173 138.558 18.2991C138.558 18.8411 138.468 19.2855 138.286 19.6321C138.105 19.9786 137.879 20.2497 137.609 20.4452C137.34 20.6362 137.074 20.7807 136.813 20.8784V20.9117C137.11 21.1072 137.391 21.3649 137.656 21.6849C137.926 22.0003 138.169 22.3447 138.386 22.7179C138.602 23.0867 138.786 23.4533 138.936 23.8177C139.087 24.1776 139.191 24.4997 139.248 24.7841C139.275 24.9174 139.275 25.0174 139.248 25.084C139.226 25.1507 139.151 25.184 139.023 25.184H137.49C137.375 25.184 137.273 25.1595 137.185 25.1107C137.101 25.0618 137.023 24.9485 136.953 24.7707C136.617 23.9221 136.23 23.2311 135.792 22.6979C135.354 22.1603 134.931 21.7293 134.525 21.4049C134.264 21.1961 134.133 21.0473 134.133 20.9584C134.133 20.8873 134.175 20.7895 134.259 20.6651C134.312 20.5896 134.39 20.4985 134.491 20.3919C134.593 20.2852 134.682 20.2052 134.757 20.1519C134.832 20.0986 134.892 20.0653 134.936 20.052C134.985 20.0386 135.057 20.032 135.155 20.032C135.482 20.032 135.754 19.9187 135.971 19.692C136.192 19.4654 136.303 19.1077 136.303 18.619C136.303 18.1569 136.185 17.8192 135.951 17.6059C135.721 17.3882 135.402 17.2793 134.996 17.2793H134.598C134.306 17.2793 134.107 17.3415 134 17.4659C133.894 17.5904 133.841 17.8036 133.841 18.1058V24.8307Z" fill="#C1B799"/>
<path d="M142.608 25.184C142.153 25.184 141.805 25.1262 141.566 25.0107C141.332 24.8952 141.173 24.7063 141.089 24.4442C141.009 24.182 140.969 23.8332 140.969 23.3978V17.4126C140.969 16.9683 141.009 16.6173 141.089 16.3596C141.173 16.0974 141.332 15.9108 141.566 15.7997C141.805 15.6842 142.153 15.6264 142.608 15.6264H145.726C145.832 15.6264 145.912 15.6442 145.965 15.6797C146.08 15.7597 146.199 15.8552 146.323 15.9663C146.447 16.0774 146.578 16.2107 146.715 16.3662C146.759 16.424 146.781 16.4706 146.781 16.5062C146.781 16.5462 146.759 16.5906 146.715 16.6395C146.578 16.795 146.447 16.9283 146.323 17.0394C146.199 17.1505 146.08 17.246 145.965 17.326C145.903 17.3615 145.824 17.3793 145.726 17.3793H143.869C143.577 17.3793 143.378 17.4415 143.271 17.5659C143.165 17.6903 143.112 17.9036 143.112 18.2058V19.4988H145.494C145.6 19.4988 145.68 19.5165 145.733 19.5521C145.848 19.6321 145.967 19.7276 146.091 19.8387C146.215 19.9498 146.345 20.0831 146.483 20.2386C146.527 20.2963 146.549 20.343 146.549 20.3785C146.549 20.4185 146.527 20.463 146.483 20.5118C146.345 20.6673 146.215 20.8006 146.091 20.9117C145.967 21.0228 145.848 21.1183 145.733 21.1983C145.671 21.2339 145.591 21.2516 145.494 21.2516H143.112V22.598C143.112 22.8957 143.165 23.1089 143.271 23.2378C143.378 23.3667 143.577 23.4311 143.869 23.4311H145.945C146.051 23.4311 146.131 23.4489 146.184 23.4844C146.299 23.5644 146.418 23.6599 146.542 23.771C146.666 23.8821 146.797 24.0154 146.934 24.1709C146.978 24.2287 147 24.2753 147 24.3109C147 24.3509 146.978 24.3953 146.934 24.4442C146.797 24.5997 146.666 24.733 146.542 24.8441C146.418 24.9551 146.299 25.0507 146.184 25.1307C146.122 25.1662 146.042 25.184 145.945 25.184H142.608Z" fill="#C1B799"/>
<path d="M54.861 37.8152C55.1838 37.8152 55.4359 37.7818 55.6173 37.7152C55.803 37.6485 55.9468 37.5663 56.0485 37.4686C56.1502 37.3708 56.2387 37.2731 56.3139 37.1753C56.3846 37.0864 56.4421 37.0198 56.4864 36.9754C56.535 36.9309 56.6014 36.8998 56.6854 36.8821C56.7562 36.8598 56.8689 36.8465 57.0237 36.8421C57.183 36.8332 57.34 36.8287 57.4948 36.8287C57.654 36.8287 57.7646 36.8332 57.8265 36.8421C57.9194 36.8465 57.9835 36.8643 58.0189 36.8954C58.0543 36.9265 58.0764 36.9931 58.0852 37.0953C58.0985 37.2375 58.1051 37.4064 58.1051 37.6019C58.1096 37.7974 58.1074 37.9662 58.0985 38.1084C58.0941 38.1528 58.0852 38.1906 58.072 38.2217C58.0631 38.2528 58.041 38.2995 58.0056 38.3617C57.9614 38.4328 57.8752 38.5372 57.7469 38.6749C57.6186 38.8082 57.4307 38.9482 57.183 39.0948C56.9353 39.237 56.6146 39.3592 56.221 39.4614C55.8318 39.5636 55.3519 39.6147 54.7813 39.6147C54.171 39.6147 53.6004 39.5369 53.0697 39.3814C52.5389 39.2215 52.0723 38.9549 51.6698 38.5816C51.2718 38.2084 50.96 37.7041 50.7344 37.0687C50.5132 36.4333 50.4027 35.6402 50.4027 34.6893C50.4027 33.6318 50.584 32.7342 50.9467 31.9966C51.3138 31.2546 51.8335 30.6903 52.5058 30.3037C53.178 29.9172 53.9742 29.7239 54.8941 29.7239C55.5399 29.7239 56.0573 29.7905 56.4466 29.9238C56.8402 30.0571 57.1387 30.2149 57.3422 30.397C57.5457 30.5748 57.6894 30.7303 57.7734 30.8636C57.8044 30.9125 57.8265 30.9569 57.8398 30.9969C57.853 31.0324 57.8619 31.0902 57.8663 31.1702C57.8796 31.2768 57.8818 31.4323 57.8729 31.6367C57.8685 31.8411 57.853 32.0211 57.8265 32.1766C57.8088 32.2743 57.7801 32.3388 57.7403 32.3699C57.7226 32.3877 57.6916 32.4032 57.6474 32.4165C57.6031 32.4299 57.5368 32.4365 57.4483 32.4365C57.3068 32.4365 57.1476 32.4321 56.9707 32.4232C56.7938 32.4099 56.6611 32.3965 56.5726 32.3832C56.4665 32.3654 56.3891 32.341 56.3404 32.3099C56.2918 32.2743 56.2431 32.221 56.1945 32.1499C56.1148 32.0344 55.9777 31.9011 55.7831 31.75C55.5885 31.599 55.2679 31.5234 54.8211 31.5234C54.1931 31.5234 53.6756 31.7678 53.2687 32.2566C52.8618 32.7409 52.6584 33.5274 52.6584 34.616C52.6584 35.7001 52.8707 36.5044 53.2952 37.0287C53.7243 37.553 54.2462 37.8152 54.861 37.8152Z" fill="#F46E29"/>
<path d="M62.1218 39.0948C62.1218 39.2281 62.0931 39.3214 62.0356 39.3748C61.9825 39.4236 61.8896 39.4481 61.757 39.4481H60.3438C60.2112 39.4481 60.1161 39.4236 60.0586 39.3748C60.0055 39.3214 59.9789 39.2281 59.9789 39.0948V30.9569C59.9789 30.828 60.0011 30.7303 60.0453 30.6636C60.2443 30.3704 60.523 30.0616 60.8812 29.7372C60.9476 29.6839 61.0051 29.6572 61.0537 29.6572C61.1068 29.6572 61.1621 29.6839 61.2196 29.7372C61.4142 29.9061 61.5778 30.0682 61.7105 30.2238C61.8432 30.3748 61.9582 30.5215 62.0555 30.6636C62.0997 30.7347 62.1218 30.8325 62.1218 30.9569V39.0948Z" fill="#F46E29"/>
<path d="M68.507 39.608C67.6755 39.608 66.9656 39.4992 66.3774 39.2814C65.7936 39.0637 65.3468 38.6816 65.0372 38.1351C64.7321 37.5885 64.5795 36.8221 64.5795 35.8357V30.9569C64.5795 30.828 64.6016 30.7303 64.6458 30.6636C64.8448 30.3704 65.1235 30.0616 65.4817 29.7372C65.5481 29.6839 65.6056 29.6572 65.6542 29.6572C65.7073 29.6572 65.7626 29.6839 65.8201 29.7372C66.0147 29.9061 66.1783 30.0682 66.311 30.2238C66.4437 30.3748 66.5587 30.5215 66.656 30.6636C66.7002 30.7347 66.7224 30.8325 66.7224 30.9569V35.5024C66.7224 36.1378 66.7887 36.6221 66.9214 36.9554C67.0585 37.2842 67.2597 37.5086 67.5251 37.6285C67.7905 37.7485 68.1178 37.8085 68.507 37.8085C68.9051 37.8085 69.2368 37.7485 69.5021 37.6285C69.7675 37.5086 69.9665 37.2842 70.0992 36.9554C70.2319 36.6221 70.2983 36.1378 70.2983 35.5024V30.9569C70.2983 30.828 70.3204 30.7303 70.3646 30.6636C70.5636 30.3704 70.8423 30.0616 71.2005 29.7372C71.2669 29.6839 71.3244 29.6572 71.373 29.6572C71.4261 29.6572 71.4814 29.6839 71.5389 29.7372C71.7335 29.9061 71.8971 30.0682 72.0298 30.2238C72.1625 30.3748 72.2775 30.5215 72.3748 30.6636C72.419 30.7347 72.4412 30.8325 72.4412 30.9569V35.8357C72.4412 36.8221 72.2731 37.5885 71.937 38.1351C71.6008 38.6816 71.1364 39.0637 70.5437 39.2814C69.9555 39.4992 69.2766 39.608 68.507 39.608Z" fill="#F46E29"/>
<path d="M77.4729 39.608C76.9112 39.608 76.4446 39.5569 76.0731 39.4547C75.706 39.3525 75.4096 39.2259 75.1841 39.0748C74.9629 38.9193 74.7926 38.766 74.6732 38.6149C74.6334 38.5572 74.598 38.5016 74.5671 38.4483C74.5361 38.395 74.514 38.335 74.5007 38.2684C74.483 38.1795 74.4653 38.064 74.4476 37.9218C74.43 37.7752 74.4277 37.6063 74.441 37.4153C74.4454 37.3353 74.4609 37.2797 74.4875 37.2486C74.5184 37.2131 74.5693 37.1864 74.64 37.1687C74.7683 37.1375 74.9342 37.1109 75.1376 37.0887C75.3455 37.062 75.4937 37.0487 75.5821 37.0487C75.675 37.0487 75.7502 37.0665 75.8077 37.102C75.8652 37.1375 75.9337 37.1975 76.0134 37.282C76.1018 37.3753 76.2544 37.4952 76.4711 37.6419C76.6878 37.7841 77.0218 37.8551 77.4729 37.8551C77.9064 37.8551 78.2336 37.7641 78.4548 37.5819C78.6759 37.3997 78.7865 37.1464 78.7865 36.8221C78.7865 36.6488 78.7334 36.4866 78.6273 36.3355C78.5256 36.18 78.3376 36.0267 78.0634 35.8756C77.7891 35.7201 77.3977 35.558 76.8891 35.3891C76.0487 35.1047 75.4428 34.7515 75.0713 34.3294C74.6998 33.9073 74.514 33.3207 74.514 32.5698C74.514 31.9478 74.6644 31.4279 74.9651 31.0102C75.2659 30.5926 75.6816 30.2771 76.2124 30.0638C76.7431 29.8505 77.3557 29.7439 78.0501 29.7439C78.5853 29.7439 79.0276 29.8083 79.377 29.9372C79.7308 30.0616 80.005 30.2038 80.1996 30.3637C80.3942 30.5192 80.5203 30.6459 80.5778 30.7436C80.6132 30.8014 80.6353 30.8458 80.6441 30.8769C80.6574 30.9036 80.6662 30.9414 80.6707 30.9902C80.6839 31.128 80.6884 31.2813 80.6839 31.4501C80.6795 31.619 80.664 31.81 80.6375 32.0233C80.6242 32.0944 80.5999 32.1433 80.5645 32.1699C80.5336 32.1921 80.4849 32.2033 80.4186 32.2033C79.9895 32.2121 79.6578 32.1899 79.4234 32.1366C79.3305 32.1144 79.2686 32.0922 79.2376 32.07C79.2067 32.0477 79.1669 32.0122 79.1182 31.9633C79.0475 31.8789 78.9347 31.7811 78.7799 31.6701C78.6295 31.5545 78.3862 31.4968 78.0501 31.4968C77.5857 31.4968 77.2562 31.6034 77.0616 31.8167C76.867 32.0255 76.7697 32.261 76.7697 32.5232C76.7697 32.8342 76.9134 33.0786 77.2009 33.2563C77.4884 33.4296 77.9417 33.6273 78.5609 33.8495C79.0784 34.0317 79.5229 34.2294 79.8944 34.4427C80.266 34.656 80.549 34.9292 80.7436 35.2625C80.9427 35.5957 81.0422 36.0356 81.0422 36.5821C81.0422 37.262 80.8852 37.8263 80.5711 38.275C80.2615 38.7238 79.8369 39.0593 79.2973 39.2814C78.7622 39.4992 78.154 39.608 77.4729 39.608Z" fill="#F46E29"/>
<path d="M87.1885 39.6147C86.2685 39.6147 85.468 39.437 84.7869 39.0815C84.1057 38.726 83.5772 38.1906 83.2013 37.4752C82.8297 36.7599 82.644 35.8668 82.644 34.7959C82.644 33.0941 83.0575 31.8256 83.8846 30.9902C84.7117 30.1504 85.8638 29.7305 87.3411 29.7305C88.7255 29.7305 89.8201 30.1416 90.6251 30.9636C91.4301 31.7811 91.8325 32.9942 91.8325 34.6026C91.8325 35.7401 91.6446 36.6799 91.2686 37.4219C90.8927 38.1595 90.3575 38.7105 89.6631 39.0748C88.9687 39.4347 88.1438 39.6147 87.1885 39.6147ZM87.2283 37.8152C88.0244 37.8152 88.6149 37.5286 88.9997 36.9554C89.3845 36.3822 89.5769 35.6379 89.5769 34.7226C89.5769 33.6607 89.3955 32.8631 89.0328 32.3299C88.6702 31.7967 88.0863 31.5301 87.2814 31.5301C85.6936 31.5301 84.8997 32.5809 84.8997 34.6826C84.8997 35.6202 85.0898 36.3777 85.4702 36.9554C85.855 37.5286 86.441 37.8152 87.2283 37.8152Z" fill="#F46E29"/>
<path d="M95.9288 39.0948C95.9288 39.2281 95.9023 39.3214 95.8492 39.3748C95.8006 39.4236 95.7121 39.4481 95.5839 39.4481H94.2504C94.1265 39.4481 94.0381 39.4236 93.985 39.3748C93.9319 39.3214 93.9054 39.2281 93.9054 39.0948V30.6503C93.9054 30.3882 93.9562 30.1971 94.058 30.0771C94.1597 29.9527 94.3388 29.8905 94.5953 29.8905H95.2123C95.4379 29.8905 95.6502 29.9216 95.8492 29.9838C96.0527 30.0416 96.2672 30.1749 96.4928 30.3837C96.7228 30.5926 96.9881 30.9169 97.2889 31.3568C97.5941 31.7922 97.9612 32.3877 98.3902 33.143C98.8015 33.8628 99.131 34.4382 99.3787 34.8692C99.6308 35.3002 99.8254 35.629 99.9625 35.8557C100.1 36.0823 100.201 36.2444 100.268 36.3422C100.338 36.4399 100.396 36.5199 100.44 36.5821V30.9569C100.44 30.828 100.46 30.7303 100.5 30.6636C100.69 30.3704 100.953 30.0616 101.289 29.7372C101.356 29.6839 101.411 29.6572 101.455 29.6572C101.504 29.6572 101.557 29.6839 101.614 29.7372C101.796 29.9061 101.948 30.0682 102.072 30.2238C102.201 30.3748 102.311 30.5215 102.404 30.6636C102.444 30.7347 102.464 30.8325 102.464 30.9569V38.8949C102.464 39.0948 102.426 39.237 102.351 39.3214C102.276 39.4059 102.139 39.4481 101.94 39.4481H101.303C101.112 39.4481 100.918 39.417 100.719 39.3548C100.52 39.2881 100.294 39.1415 100.042 38.9149C99.79 38.6838 99.4915 38.3261 99.1465 37.8418C98.8015 37.3575 98.3858 36.6954 97.8992 35.8557C97.4879 35.1403 97.1584 34.5715 96.9107 34.1494C96.6675 33.7273 96.4817 33.4096 96.3534 33.1963C96.2252 32.9786 96.1323 32.8275 96.0748 32.7431C96.0173 32.6542 95.9687 32.5876 95.9288 32.5432V39.0948Z" fill="#F46E29"/>
</svg>
