<svg width="2164" height="674" viewBox="0 0 2164 674" fill="none" xmlns="http://www.w3.org/2000/svg">
<path d="M522.736 259.333L356.407 384.466L349.628 389L329.777 332.5L468.951 179.538C468.047 168.96 466.781 143.359 468.951 125.586C471.662 103.371 497.877 74.8077 538.556 63.9266C571.098 55.2217 582.548 17.6818 584.206 0H588.274C588.274 47.5142 621.72 65.7401 655.167 74.8077C547.143 113.798 532.664 131.027 554.827 174.551C580.499 224.967 642.059 181.956 669.63 154.149C699.009 242.105 572.454 286.536 522.736 259.333Z" fill="#F46E29"/>
<path fill-rule="evenodd" clip-rule="evenodd" d="M307.352 319.789C318.845 322.544 334.407 330.657 344.12 346.161C353.903 361.776 357.712 384.825 345.564 417.307L396.529 474.623L373.843 497L322.153 439.688C316.791 441.871 307.077 444.438 295.683 445.194C284.193 445.957 270.966 444.881 258.754 439.693L209.138 496.714L208.894 496.994L184.357 474.624L236.759 420.248C234.211 415.86 230.85 408.194 228.844 399.107C226.821 389.946 226.171 379.313 229.141 369.125L160.753 340.459L160.405 340.314L160.563 339.97L173.799 311.209L241.781 343.291C245.488 336.473 256.913 322.773 274.644 319.77V245H307.352V319.789ZM289.544 347.047C269.674 347.047 253.566 363.201 253.566 383.128C253.566 403.055 269.674 419.21 289.544 419.21C309.415 419.21 325.523 403.055 325.523 383.128C325.523 363.201 309.415 347.047 289.544 347.047Z" fill="#414647"/>
<path d="M289.426 93C341.88 93 391.074 107.005 433.499 131.493L433.064 132.152C418.51 143.155 404.227 160.136 389.335 182.587C359.265 167.493 325.334 159 289.426 159C165.897 159 65.7561 259.512 65.7561 383.5C65.7561 507.488 165.897 608 289.426 608C412.956 608 513.097 507.488 513.097 383.5C513.097 370.58 512.008 357.915 509.92 345.592C529.169 337.528 549.106 328.105 571.151 316.65C576.187 338.113 578.853 360.494 578.853 383.5C578.853 543.939 449.272 674 289.426 674C129.581 674 0 543.939 0 383.5C0 223.061 129.581 93 289.426 93Z" fill="#414647"/>
<path d="M289.925 211C315.898 211 340.522 216.801 362.581 227.182C356.603 237.954 350.466 249.464 344.123 261.685C327.579 254.227 309.235 250.077 289.925 250.077C216.785 250.077 157.493 309.589 157.493 383C157.493 456.411 216.785 515.923 289.925 515.923C363.064 515.923 422.356 456.411 422.356 383C422.356 380.4 422.279 377.818 422.132 375.255C435.323 371.709 447.902 368.023 460.253 364.015C460.935 370.249 461.289 376.583 461.289 383C461.289 477.993 384.567 555 289.925 555C195.283 555 118.56 477.993 118.56 383C118.56 288.007 195.283 211 289.925 211Z" fill="#414647"/>
<path d="M781.156 361.285C775.948 353.082 770.837 343.902 765.824 333.746C760.876 323.525 756.384 313.043 752.348 302.301C748.311 291.493 745.089 281.109 742.68 271.148C740.271 261.122 739.066 252.171 739.066 244.293C739.066 242.6 739.424 241.266 740.141 240.289C741.638 238.206 743.461 236.057 745.609 233.844C747.823 231.565 750.427 229.189 753.422 226.715C754.398 225.934 755.31 225.543 756.156 225.543C757.003 225.543 757.849 225.934 758.695 226.715C761.755 229.189 764.359 231.565 766.508 233.844C768.656 236.057 770.479 238.206 771.977 240.289C772.693 241.266 773.051 242.698 773.051 244.586V244.195C773.051 249.729 773.799 256.402 775.297 264.215C776.859 271.962 778.975 280.133 781.645 288.727C784.379 297.255 787.471 305.556 790.922 313.629C794.438 321.637 798.181 328.635 802.152 334.625H802.738C807.1 328.635 811.039 321.669 814.555 313.727C818.135 305.719 821.195 297.451 823.734 288.922C826.339 280.393 828.324 272.255 829.691 264.508C831.124 256.695 831.84 249.957 831.84 244.293V244.586C831.84 242.698 832.165 241.266 832.816 240.289C835.941 235.992 840.238 231.467 845.707 226.715C846.749 225.934 847.66 225.543 848.441 225.543C849.158 225.543 850.004 225.934 850.98 226.715C853.91 229.189 856.417 231.565 858.5 233.844C860.583 236.057 862.374 238.206 863.871 240.289C864.522 241.331 864.848 242.73 864.848 244.488C864.848 250.413 864.001 257.281 862.309 265.094C860.681 272.841 858.435 281.044 855.57 289.703C852.706 298.362 849.451 307.021 845.805 315.68C842.159 324.339 838.318 332.607 834.281 340.484C830.245 348.297 826.208 355.23 822.172 361.285C818.786 366.428 814.164 369 808.305 369H794.828C788.969 369 784.411 366.428 781.156 361.285ZM739.066 244.195V244.293V244.586V244.195ZM864.848 244.293V244.586V244.488V244.293Z" fill="#414647"/>
<path d="M948.973 371.344C936.733 371.344 926.284 369.749 917.625 366.559C909.031 363.368 902.456 357.77 897.898 349.762C893.406 341.754 891.16 330.523 891.16 316.07V244.586C891.16 242.698 891.486 241.266 892.137 240.289C895.066 235.992 899.168 231.467 904.441 226.715C905.418 225.934 906.264 225.543 906.98 225.543C907.762 225.543 908.576 225.934 909.422 226.715C912.286 229.189 914.695 231.565 916.648 233.844C918.602 236.057 920.294 238.206 921.727 240.289C922.378 241.331 922.703 242.763 922.703 244.586V311.188C922.703 320.497 923.68 327.594 925.633 332.477C927.651 337.294 930.613 340.582 934.52 342.34C938.426 344.098 943.243 344.977 948.973 344.977C954.832 344.977 959.715 344.098 963.621 342.34C967.527 340.582 970.457 337.294 972.41 332.477C974.363 327.594 975.34 320.497 975.34 311.188V244.586C975.34 242.698 975.665 241.266 976.316 240.289C979.246 235.992 983.348 231.467 988.621 226.715C989.598 225.934 990.444 225.543 991.16 225.543C991.941 225.543 992.755 225.934 993.602 226.715C996.466 229.189 998.875 231.565 1000.83 233.844C1002.78 236.057 1004.47 238.206 1005.91 240.289C1006.56 241.331 1006.88 242.763 1006.88 244.586V316.07C1006.88 330.523 1004.41 341.754 999.461 349.762C994.513 357.77 987.677 363.368 978.953 366.559C970.294 369.749 960.301 371.344 948.973 371.344Z" fill="#414647"/>
<path d="M1067.18 369C1060.47 369 1055.36 368.154 1051.85 366.461C1048.4 364.768 1046.05 362.001 1044.82 358.16C1043.64 354.319 1043.06 349.208 1043.06 342.828V244.586C1043.06 242.698 1043.38 241.266 1044.04 240.289C1046.96 235.992 1051.07 231.467 1056.34 226.715C1057.32 225.934 1058.16 225.543 1058.88 225.543C1059.66 225.543 1060.47 225.934 1061.32 226.715C1064.18 229.189 1066.59 231.565 1068.55 233.844C1070.5 236.057 1072.19 238.206 1073.62 240.289C1074.28 241.331 1074.6 242.763 1074.6 244.586V331.207C1074.6 335.569 1075.38 338.694 1076.95 340.582C1078.51 342.47 1081.44 343.414 1085.73 343.414L1115.71 343.316C1117.28 343.316 1118.45 343.577 1119.23 344.098C1120.92 345.27 1122.68 346.669 1124.5 348.297C1126.33 349.924 1128.25 351.878 1130.27 354.156C1130.92 355.003 1131.24 355.686 1131.24 356.207C1131.24 356.793 1130.92 357.444 1130.27 358.16C1128.25 360.439 1126.33 362.392 1124.5 364.02C1122.68 365.647 1120.92 367.047 1119.23 368.219C1118.32 368.74 1117.15 369 1115.71 369H1067.18Z" fill="#414647"/>
<path d="M1206.87 345.074C1211.62 345.074 1215.33 344.586 1218 343.609C1220.74 342.633 1222.85 341.428 1224.35 339.996C1225.85 338.564 1227.15 337.132 1228.26 335.699C1229.3 334.397 1230.15 333.421 1230.8 332.77C1231.51 332.118 1232.49 331.663 1233.73 331.402C1234.77 331.077 1236.43 330.882 1238.71 330.816C1241.05 330.686 1243.36 330.621 1245.64 330.621C1247.98 330.621 1249.61 330.686 1250.52 330.816C1251.89 330.882 1252.83 331.142 1253.36 331.598C1253.88 332.053 1254.2 333.03 1254.33 334.527C1254.53 336.611 1254.62 339.085 1254.62 341.949C1254.69 344.814 1254.66 347.288 1254.53 349.371C1254.46 350.022 1254.33 350.576 1254.14 351.031C1254.01 351.487 1253.68 352.171 1253.16 353.082C1252.51 354.124 1251.24 355.654 1249.35 357.672C1247.46 359.625 1244.7 361.676 1241.05 363.824C1237.4 365.908 1232.68 367.698 1226.89 369.195C1221.16 370.693 1214.1 371.441 1205.7 371.441C1196.71 371.441 1188.32 370.302 1180.5 368.023C1172.69 365.68 1165.82 361.773 1159.9 356.305C1154.04 350.836 1149.45 343.447 1146.13 334.137C1142.87 324.827 1141.25 313.206 1141.25 299.273C1141.25 283.779 1143.92 270.628 1149.25 259.82C1154.66 248.948 1162.31 240.68 1172.2 235.016C1182.1 229.352 1193.82 226.52 1207.36 226.52C1216.86 226.52 1224.48 227.496 1230.21 229.449C1236.01 231.402 1240.4 233.714 1243.39 236.383C1246.39 238.987 1248.51 241.266 1249.74 243.219C1250.2 243.935 1250.52 244.586 1250.72 245.172C1250.91 245.693 1251.04 246.539 1251.11 247.711C1251.3 249.273 1251.34 251.552 1251.21 254.547C1251.14 257.542 1250.91 260.178 1250.52 262.457C1250.26 263.889 1249.84 264.833 1249.25 265.289C1248.99 265.549 1248.54 265.777 1247.89 265.973C1247.24 266.168 1246.26 266.266 1244.96 266.266C1242.87 266.266 1240.53 266.201 1237.93 266.07C1235.32 265.875 1233.37 265.68 1232.07 265.484C1230.5 265.224 1229.36 264.866 1228.65 264.41C1227.93 263.889 1227.22 263.108 1226.5 262.066C1225.33 260.374 1223.31 258.421 1220.45 256.207C1217.58 253.993 1212.86 252.887 1206.29 252.887C1197.04 252.887 1189.42 256.467 1183.43 263.629C1177.44 270.725 1174.45 282.249 1174.45 298.199C1174.45 314.085 1177.57 325.868 1183.82 333.551C1190.14 341.233 1197.82 345.074 1206.87 345.074Z" fill="#414647"/>
<path d="M1357.6 236.676C1361.18 241.689 1364.82 248.167 1368.54 256.109C1372.31 263.987 1375.96 272.646 1379.47 282.086C1382.99 291.526 1386.15 301.194 1388.95 311.09C1391.81 320.921 1394.15 330.393 1395.98 339.508C1397.8 348.622 1398.84 356.728 1399.1 363.824C1399.17 367.275 1397.6 369 1394.41 369H1370.78C1367.72 369 1366.13 367.47 1366 364.41C1365.74 357.118 1364.56 348.264 1362.48 337.848H1309.16C1307.34 348.004 1306.3 356.858 1306.04 364.41C1305.9 367.47 1304.24 369 1301.05 369H1277.91C1276.74 369 1275.76 368.674 1274.98 368.023C1274.2 367.307 1273.84 366.103 1273.91 364.41C1274.23 357.184 1275.27 348.98 1277.03 339.801C1278.85 330.556 1281.2 320.986 1284.06 311.09C1286.93 301.194 1290.12 291.526 1293.63 282.086C1297.15 272.581 1300.79 263.889 1304.57 256.012C1308.35 248.134 1312.02 241.689 1315.61 236.676C1317.49 234.007 1319.48 232.053 1321.56 230.816C1323.71 229.579 1326.35 228.961 1329.47 228.961H1343.54C1346.73 228.961 1349.39 229.579 1351.54 230.816C1353.69 232.053 1355.71 234.007 1357.6 236.676ZM1335.53 259.82C1331.23 266.656 1327.29 274.827 1323.71 284.332C1320.13 293.837 1317.04 303.603 1314.43 313.629H1356.82C1354.08 303.603 1350.92 293.837 1347.34 284.332C1343.76 274.827 1340.02 266.656 1336.11 259.82H1335.53Z" fill="#414647"/>
<path d="M1457.84 363.824C1457.84 365.777 1457.45 367.145 1456.66 367.926C1455.95 368.642 1454.65 369 1452.76 369H1433.13C1431.31 369 1430 368.642 1429.22 367.926C1428.44 367.145 1428.05 365.777 1428.05 363.824V240.094C1428.05 236.253 1428.8 233.453 1430.3 231.695C1431.79 229.872 1434.43 228.961 1438.21 228.961H1447.29C1450.61 228.961 1453.73 229.417 1456.66 230.328C1459.66 231.174 1462.82 233.128 1466.14 236.188C1469.52 239.247 1473.43 244 1477.86 250.445C1482.35 256.826 1487.75 265.549 1494.07 276.617C1500.12 287.164 1504.97 295.595 1508.62 301.91C1512.33 308.225 1515.19 313.043 1517.21 316.363C1519.23 319.684 1520.73 322.06 1521.7 323.492C1522.74 324.924 1523.59 326.096 1524.24 327.008V244.586C1524.24 242.698 1524.54 241.266 1525.12 240.289C1527.92 235.992 1531.79 231.467 1536.74 226.715C1537.72 225.934 1538.53 225.543 1539.18 225.543C1539.9 225.543 1540.68 225.934 1541.53 226.715C1544.2 229.189 1546.44 231.565 1548.27 233.844C1550.15 236.057 1551.78 238.206 1553.15 240.289C1553.73 241.331 1554.03 242.763 1554.03 244.586V360.895C1554.03 363.824 1553.47 365.908 1552.37 367.145C1551.26 368.382 1549.24 369 1546.31 369H1536.94C1534.14 369 1531.27 368.544 1528.34 367.633C1525.41 366.656 1522.09 364.508 1518.38 361.188C1514.67 357.802 1510.28 352.561 1505.2 345.465C1500.12 338.368 1494 328.668 1486.84 316.363C1480.79 305.882 1475.93 297.548 1472.29 291.363C1468.71 285.178 1465.97 280.523 1464.09 277.398C1462.2 274.208 1460.83 271.995 1459.98 270.758C1459.14 269.456 1458.42 268.479 1457.84 267.828V363.824Z" fill="#414647"/>
<path d="M1622.82 363.824C1622.82 365.777 1622.4 367.145 1621.55 367.926C1620.77 368.642 1619.4 369 1617.45 369H1596.65C1594.7 369 1593.3 368.642 1592.45 367.926C1591.67 367.145 1591.28 365.777 1591.28 363.824V244.586C1591.28 242.698 1591.6 241.266 1592.25 240.289C1595.18 235.992 1599.29 231.467 1604.56 226.715C1605.54 225.934 1606.38 225.543 1607.1 225.543C1607.88 225.543 1608.69 225.934 1609.54 226.715C1612.4 229.189 1614.81 231.565 1616.77 233.844C1618.72 236.057 1620.41 238.206 1621.84 240.289C1622.49 241.331 1622.82 242.763 1622.82 244.586V363.824Z" fill="#414647"/>
<path d="M1661.93 369C1653.59 369 1649.43 365.517 1649.43 358.551C1649.43 356.337 1649.85 354.221 1650.7 352.203C1651.54 350.12 1653.07 347.581 1655.29 344.586L1722.38 254.645H1666.52C1664.95 254.645 1663.78 254.384 1663 253.863C1661.31 252.691 1659.55 251.292 1657.73 249.664C1655.97 248.036 1654.05 246.083 1651.96 243.805C1651.31 242.958 1650.99 242.275 1650.99 241.754C1650.99 241.168 1651.31 240.517 1651.96 239.801C1654.05 237.522 1655.97 235.569 1657.73 233.941C1659.55 232.314 1661.31 230.914 1663 229.742C1663.91 229.221 1665.08 228.961 1666.52 228.961H1751.28C1759.81 228.961 1764.07 232.477 1764.07 239.508C1764.07 241.982 1763.59 244.26 1762.61 246.344C1761.63 248.427 1760.2 250.771 1758.31 253.375L1691.61 343.414L1752.65 343.316C1754.21 343.316 1755.38 343.577 1756.16 344.098C1757.86 345.27 1759.61 346.669 1761.44 348.297C1763.26 349.924 1765.18 351.878 1767.2 354.156C1767.85 355.003 1768.18 355.686 1768.18 356.207C1768.18 356.793 1767.85 357.444 1767.2 358.16C1765.18 360.439 1763.26 362.392 1761.44 364.02C1759.61 365.647 1757.86 367.047 1756.16 368.219C1755.25 368.74 1754.08 369 1752.65 369H1661.93Z" fill="#414647"/>
<path d="M1868.12 236.676C1871.7 241.689 1875.35 248.167 1879.06 256.109C1882.83 263.987 1886.48 272.646 1890 282.086C1893.51 291.526 1896.67 301.194 1899.47 311.09C1902.33 320.921 1904.68 330.393 1906.5 339.508C1908.32 348.622 1909.36 356.728 1909.62 363.824C1909.69 367.275 1908.13 369 1904.94 369H1881.3C1878.24 369 1876.65 367.47 1876.52 364.41C1876.26 357.118 1875.09 348.264 1873 337.848H1819.68C1817.86 348.004 1816.82 356.858 1816.56 364.41C1816.43 367.47 1814.77 369 1811.58 369H1788.43C1787.26 369 1786.29 368.674 1785.5 368.023C1784.72 367.307 1784.36 366.103 1784.43 364.41C1784.76 357.184 1785.8 348.98 1787.55 339.801C1789.38 330.556 1791.72 320.986 1794.59 311.09C1797.45 301.194 1800.64 291.526 1804.16 282.086C1807.67 272.581 1811.32 263.889 1815.09 256.012C1818.87 248.134 1822.55 241.689 1826.13 236.676C1828.02 234.007 1830 232.053 1832.09 230.816C1834.23 229.579 1836.87 228.961 1840 228.961H1854.06C1857.25 228.961 1859.92 229.579 1862.07 230.816C1864.21 232.053 1866.23 234.007 1868.12 236.676ZM1846.05 259.82C1841.75 266.656 1837.82 274.827 1834.23 284.332C1830.65 293.837 1827.56 303.603 1824.96 313.629H1867.34C1864.61 303.603 1861.45 293.837 1857.87 284.332C1854.29 274.827 1850.54 266.656 1846.64 259.82H1846.05Z" fill="#414647"/>
<path d="M1970.12 363.824C1970.12 365.777 1969.69 367.145 1968.85 367.926C1968.07 368.642 1966.7 369 1964.75 369H1943.95C1941.99 369 1940.59 368.642 1939.75 367.926C1938.96 367.145 1938.57 365.777 1938.57 363.824V255.133C1938.57 248.622 1939.16 243.479 1940.33 239.703C1941.57 235.862 1943.91 233.128 1947.36 231.5C1950.88 229.807 1955.99 228.961 1962.7 228.961H1988.57C2022.56 228.961 2039.55 242.014 2039.55 268.121C2039.55 276.064 2038.22 282.574 2035.55 287.652C2032.88 292.73 2029.56 296.702 2025.59 299.566C2021.61 302.366 2017.71 304.482 2013.87 305.914V306.402C2018.23 309.267 2022.36 313.043 2026.27 317.73C2030.24 322.353 2033.82 327.398 2037.01 332.867C2040.2 338.271 2042.9 343.642 2045.12 348.98C2047.33 354.254 2048.86 358.974 2049.71 363.141C2050.1 365.094 2050.1 366.559 2049.71 367.535C2049.38 368.512 2048.27 369 2046.39 369H2023.83C2022.14 369 2020.64 368.642 2019.34 367.926C2018.1 367.21 2016.96 365.549 2015.92 362.945C2010.97 350.51 2005.27 340.387 1998.83 332.574C1992.38 324.697 1986.17 318.382 1980.18 313.629C1976.33 310.569 1974.41 308.388 1974.41 307.086C1974.41 306.044 1975.03 304.612 1976.27 302.789C1977.05 301.682 1978.19 300.348 1979.69 298.785C1981.18 297.223 1982.49 296.051 1983.59 295.27C1984.7 294.488 1985.58 294 1986.23 293.805C1986.95 293.609 1988.02 293.512 1989.45 293.512C1994.27 293.512 1998.27 291.852 2001.46 288.531C2004.72 285.211 2006.35 279.97 2006.35 272.809C2006.35 266.038 2004.62 261.09 2001.17 257.965C1997.79 254.775 1993.1 253.18 1987.11 253.18H1981.25C1976.95 253.18 1974.02 254.091 1972.46 255.914C1970.9 257.737 1970.12 260.862 1970.12 265.289V363.824Z" fill="#414647"/>
<path d="M2099.16 369C2092.46 369 2087.35 368.154 2083.83 366.461C2080.38 364.768 2078.04 362.001 2076.8 358.16C2075.63 354.319 2075.04 349.208 2075.04 342.828V255.133C2075.04 248.622 2075.63 243.479 2076.8 239.703C2078.04 235.862 2080.38 233.128 2083.83 231.5C2087.35 229.807 2092.46 228.961 2099.16 228.961H2145.06C2146.62 228.961 2147.8 229.221 2148.58 229.742C2150.27 230.914 2152.03 232.314 2153.85 233.941C2155.67 235.569 2157.6 237.522 2159.61 239.801C2160.26 240.647 2160.59 241.331 2160.59 241.852C2160.59 242.438 2160.26 243.089 2159.61 243.805C2157.6 246.083 2155.67 248.036 2153.85 249.664C2152.03 251.292 2150.27 252.691 2148.58 253.863C2147.67 254.384 2146.49 254.645 2145.06 254.645H2117.72C2113.42 254.645 2110.49 255.556 2108.93 257.379C2107.37 259.202 2106.59 262.327 2106.59 266.754V285.699H2141.64C2143.21 285.699 2144.38 285.96 2145.16 286.48C2146.85 287.652 2148.61 289.052 2150.43 290.68C2152.26 292.307 2154.18 294.26 2156.2 296.539C2156.85 297.385 2157.17 298.069 2157.17 298.59C2157.17 299.176 2156.85 299.827 2156.2 300.543C2154.18 302.822 2152.26 304.775 2150.43 306.402C2148.61 308.03 2146.85 309.43 2145.16 310.602C2144.25 311.122 2143.08 311.383 2141.64 311.383H2106.59V331.109C2106.59 335.471 2107.37 338.596 2108.93 340.484C2110.49 342.372 2113.42 343.316 2117.72 343.316H2148.29C2149.85 343.316 2151.02 343.577 2151.8 344.098C2153.49 345.27 2155.25 346.669 2157.07 348.297C2158.9 349.924 2160.82 351.878 2162.84 354.156C2163.49 355.003 2163.81 355.686 2163.81 356.207C2163.81 356.793 2163.49 357.444 2162.84 358.16C2160.82 360.439 2158.9 362.392 2157.07 364.02C2155.25 365.647 2153.49 367.047 2151.8 368.219C2150.89 368.74 2149.72 369 2148.29 369H2099.16Z" fill="#414647"/>
<path d="M807.543 554.074C812.296 554.074 816.007 553.586 818.676 552.609C821.41 551.633 823.526 550.428 825.023 548.996C826.521 547.564 827.823 546.132 828.93 544.699C829.971 543.397 830.818 542.421 831.469 541.77C832.185 541.118 833.161 540.663 834.398 540.402C835.44 540.077 837.1 539.882 839.379 539.816C841.723 539.686 844.034 539.621 846.312 539.621C848.656 539.621 850.284 539.686 851.195 539.816C852.562 539.882 853.507 540.142 854.027 540.598C854.548 541.053 854.874 542.03 855.004 543.527C855.199 545.611 855.297 548.085 855.297 550.949C855.362 553.814 855.329 556.288 855.199 558.371C855.134 559.022 855.004 559.576 854.809 560.031C854.678 560.487 854.353 561.171 853.832 562.082C853.181 563.124 851.911 564.654 850.023 566.672C848.135 568.625 845.368 570.676 841.723 572.824C838.077 574.908 833.357 576.698 827.562 578.195C821.833 579.693 814.77 580.441 806.371 580.441C797.387 580.441 788.988 579.302 781.176 577.023C773.363 574.68 766.495 570.773 760.57 565.305C754.711 559.836 750.121 552.447 746.801 543.137C743.546 533.827 741.918 522.206 741.918 508.273C741.918 492.779 744.587 479.628 749.926 468.82C755.329 457.948 762.979 449.68 772.875 444.016C782.771 438.352 794.49 435.52 808.031 435.52C817.536 435.52 825.154 436.496 830.883 438.449C836.677 440.402 841.072 442.714 844.066 445.383C847.061 447.987 849.177 450.266 850.414 452.219C850.87 452.935 851.195 453.586 851.391 454.172C851.586 454.693 851.716 455.539 851.781 456.711C851.977 458.273 852.009 460.552 851.879 463.547C851.814 466.542 851.586 469.178 851.195 471.457C850.935 472.889 850.512 473.833 849.926 474.289C849.665 474.549 849.21 474.777 848.559 474.973C847.908 475.168 846.931 475.266 845.629 475.266C843.546 475.266 841.202 475.201 838.598 475.07C835.993 474.875 834.04 474.68 832.738 474.484C831.176 474.224 830.036 473.866 829.32 473.41C828.604 472.889 827.888 472.108 827.172 471.066C826 469.374 823.982 467.421 821.117 465.207C818.253 462.993 813.533 461.887 806.957 461.887C797.712 461.887 790.095 465.467 784.105 472.629C778.116 479.725 775.121 491.249 775.121 507.199C775.121 523.085 778.246 534.868 784.496 542.551C790.811 550.233 798.493 554.074 807.543 554.074Z" fill="#F46E29"/>
<path d="M914.422 572.824C914.422 574.777 913.999 576.145 913.152 576.926C912.371 577.642 911.004 578 909.051 578H888.25C886.297 578 884.897 577.642 884.051 576.926C883.27 576.145 882.879 574.777 882.879 572.824V453.586C882.879 451.698 883.204 450.266 883.855 449.289C886.785 444.992 890.887 440.467 896.16 435.715C897.137 434.934 897.983 434.543 898.699 434.543C899.48 434.543 900.294 434.934 901.141 435.715C904.005 438.189 906.414 440.565 908.367 442.844C910.32 445.057 912.013 447.206 913.445 449.289C914.096 450.331 914.422 451.763 914.422 453.586V572.824Z" fill="#F46E29"/>
<path d="M1008.41 580.344C996.171 580.344 985.721 578.749 977.062 575.559C968.469 572.368 961.893 566.77 957.336 558.762C952.844 550.754 950.598 539.523 950.598 525.07V453.586C950.598 451.698 950.923 450.266 951.574 449.289C954.504 444.992 958.605 440.467 963.879 435.715C964.855 434.934 965.702 434.543 966.418 434.543C967.199 434.543 968.013 434.934 968.859 435.715C971.724 438.189 974.133 440.565 976.086 442.844C978.039 445.057 979.732 447.206 981.164 449.289C981.815 450.331 982.141 451.763 982.141 453.586V520.188C982.141 529.497 983.117 536.594 985.07 541.477C987.089 546.294 990.051 549.582 993.957 551.34C997.863 553.098 1002.68 553.977 1008.41 553.977C1014.27 553.977 1019.15 553.098 1023.06 551.34C1026.96 549.582 1029.89 546.294 1031.85 541.477C1033.8 536.594 1034.78 529.497 1034.78 520.188V453.586C1034.78 451.698 1035.1 450.266 1035.75 449.289C1038.68 444.992 1042.79 440.467 1048.06 435.715C1049.04 434.934 1049.88 434.543 1050.6 434.543C1051.38 434.543 1052.19 434.934 1053.04 435.715C1055.9 438.189 1058.31 440.565 1060.27 442.844C1062.22 445.057 1063.91 447.206 1065.34 449.289C1065.99 450.331 1066.32 451.763 1066.32 453.586V525.07C1066.32 539.523 1063.85 550.754 1058.9 558.762C1053.95 566.77 1047.11 572.368 1038.39 575.559C1029.73 578.749 1019.74 580.344 1008.41 580.344Z" fill="#F46E29"/>
<path d="M1140.39 580.344C1132.12 580.344 1125.25 579.595 1119.78 578.098C1114.38 576.6 1110.02 574.745 1106.7 572.531C1103.44 570.253 1100.93 568.007 1099.18 565.793C1098.59 564.947 1098.07 564.133 1097.61 563.352C1097.16 562.57 1096.83 561.691 1096.64 560.715C1096.38 559.413 1096.12 557.72 1095.86 555.637C1095.6 553.488 1095.56 551.014 1095.76 548.215C1095.82 547.043 1096.05 546.229 1096.44 545.773C1096.9 545.253 1097.65 544.862 1098.69 544.602C1100.58 544.146 1103.02 543.755 1106.01 543.43C1109.07 543.039 1111.25 542.844 1112.55 542.844C1113.92 542.844 1115.03 543.104 1115.88 543.625C1116.72 544.146 1117.73 545.025 1118.9 546.262C1120.2 547.629 1122.45 549.387 1125.64 551.535C1128.83 553.618 1133.75 554.66 1140.39 554.66C1146.77 554.66 1151.58 553.326 1154.84 550.656C1158.1 547.987 1159.72 544.276 1159.72 539.523C1159.72 536.984 1158.94 534.608 1157.38 532.395C1155.88 530.116 1153.11 527.87 1149.08 525.656C1145.04 523.378 1139.28 521.001 1131.79 518.527C1119.42 514.361 1110.5 509.185 1105.04 503C1099.57 496.815 1096.83 488.221 1096.83 477.219C1096.83 468.104 1099.05 460.487 1103.47 454.367C1107.9 448.247 1114.02 443.625 1121.83 440.5C1129.64 437.375 1138.66 435.812 1148.88 435.812C1156.76 435.812 1163.27 436.757 1168.41 438.645C1173.62 440.467 1177.66 442.551 1180.52 444.895C1183.39 447.173 1185.24 449.029 1186.09 450.461C1186.61 451.307 1186.94 451.958 1187.07 452.414C1187.26 452.805 1187.39 453.358 1187.46 454.074C1187.65 456.092 1187.72 458.339 1187.65 460.812C1187.59 463.286 1187.36 466.086 1186.97 469.211C1186.77 470.253 1186.42 470.969 1185.89 471.359C1185.44 471.685 1184.72 471.848 1183.75 471.848C1177.43 471.978 1172.55 471.652 1169.1 470.871C1167.73 470.546 1166.82 470.22 1166.36 469.895C1165.91 469.569 1165.32 469.048 1164.61 468.332C1163.56 467.095 1161.9 465.663 1159.62 464.035C1157.41 462.342 1153.83 461.496 1148.88 461.496C1142.05 461.496 1137.2 463.059 1134.33 466.184C1131.47 469.243 1130.04 472.694 1130.04 476.535C1130.04 481.092 1132.15 484.673 1136.38 487.277C1140.61 489.816 1147.29 492.714 1156.4 495.969C1164.02 498.638 1170.56 501.535 1176.03 504.66C1181.5 507.785 1185.67 511.789 1188.53 516.672C1191.46 521.555 1192.93 528 1192.93 536.008C1192.93 545.969 1190.61 554.237 1185.99 560.812C1181.43 567.388 1175.18 572.303 1167.24 575.559C1159.36 578.749 1150.41 580.344 1140.39 580.344Z" fill="#F46E29"/>
<path d="M1283.4 580.441C1269.86 580.441 1258.07 577.837 1248.05 572.629C1238.02 567.421 1230.24 559.576 1224.71 549.094C1219.24 538.612 1216.5 525.526 1216.5 509.836C1216.5 484.901 1222.59 466.314 1234.77 454.074C1246.94 441.77 1263.9 435.617 1285.64 435.617C1306.02 435.617 1322.14 441.639 1333.98 453.684C1345.83 465.663 1351.76 483.436 1351.76 507.004C1351.76 523.671 1348.99 537.44 1343.46 548.312C1337.92 559.12 1330.05 567.193 1319.82 572.531C1309.6 577.805 1297.46 580.441 1283.4 580.441ZM1283.98 554.074C1295.7 554.074 1304.39 549.875 1310.06 541.477C1315.72 533.078 1318.55 522.173 1318.55 508.762C1318.55 493.202 1315.89 481.516 1310.55 473.703C1305.21 465.891 1296.61 461.984 1284.77 461.984C1261.39 461.984 1249.71 477.382 1249.71 508.176C1249.71 521.913 1252.51 533.013 1258.11 541.477C1263.77 549.875 1272.4 554.074 1283.98 554.074Z" fill="#F46E29"/>
<path d="M1412.05 572.824C1412.05 574.777 1411.66 576.145 1410.88 576.926C1410.17 577.642 1408.86 578 1406.98 578H1387.35C1385.52 578 1384.22 577.642 1383.44 576.926C1382.66 576.145 1382.27 574.777 1382.27 572.824V449.094C1382.27 445.253 1383.02 442.453 1384.52 440.695C1386.01 438.872 1388.65 437.961 1392.43 437.961H1401.51C1404.83 437.961 1407.95 438.417 1410.88 439.328C1413.88 440.174 1417.04 442.128 1420.36 445.188C1423.74 448.247 1427.65 453 1432.07 459.445C1436.57 465.826 1441.97 474.549 1448.29 485.617C1454.34 496.164 1459.19 504.595 1462.84 510.91C1466.55 517.225 1469.41 522.043 1471.43 525.363C1473.45 528.684 1474.95 531.06 1475.92 532.492C1476.96 533.924 1477.81 535.096 1478.46 536.008V453.586C1478.46 451.698 1478.75 450.266 1479.34 449.289C1482.14 444.992 1486.01 440.467 1490.96 435.715C1491.94 434.934 1492.75 434.543 1493.4 434.543C1494.12 434.543 1494.9 434.934 1495.75 435.715C1498.42 438.189 1500.66 440.565 1502.48 442.844C1504.37 445.057 1506 447.206 1507.37 449.289C1507.95 450.331 1508.25 451.763 1508.25 453.586V569.895C1508.25 572.824 1507.69 574.908 1506.59 576.145C1505.48 577.382 1503.46 578 1500.53 578H1491.16C1488.36 578 1485.49 577.544 1482.56 576.633C1479.63 575.656 1476.31 573.508 1472.6 570.188C1468.89 566.802 1464.5 561.561 1459.42 554.465C1454.34 547.368 1448.22 537.668 1441.06 525.363C1435 514.882 1430.15 506.548 1426.51 500.363C1422.93 494.178 1420.19 489.523 1418.3 486.398C1416.42 483.208 1415.05 480.995 1414.2 479.758C1413.36 478.456 1412.64 477.479 1412.05 476.828V572.824Z" fill="#F46E29"/>
</svg>
