<svg width="50" height="50" viewBox="0 0 50 50" fill="none" xmlns="http://www.w3.org/2000/svg">
<g clip-path="url(#clip0_205_144)">
<path d="M48.715 25C48.715 24.8934 48.7087 24.7882 48.7072 24.68C49.1387 24.5646 49.5701 24.4421 50 24.3148C49.966 23.1374 49.8546 21.9615 49.6563 20.799C49.2113 20.7556 48.7641 20.72 48.3176 20.6893C47.9936 18.927 47.4783 17.2312 46.7877 15.627C47.1401 15.3566 47.4895 15.077 47.8387 14.794C47.3543 13.7186 46.798 12.6762 46.1688 11.6806C45.7422 11.8117 45.3162 11.9508 44.891 12.0938C43.9229 10.6043 42.7938 9.23076 41.5255 7.99805C41.7476 7.61084 41.9782 7.23066 42.1916 6.83633C41.3357 6.02715 40.423 5.27881 39.4637 4.59443C39.1176 4.88047 38.7912 5.18076 38.4554 5.47324C37.0061 4.47188 35.4374 3.63037 33.7787 2.97051C33.8372 2.52637 33.8886 2.08066 33.9344 1.63496C32.8336 1.21289 31.6996 0.871484 30.5506 0.60918C30.3403 1.00752 30.1381 1.40342 29.9412 1.80244C28.3465 1.46494 26.6941 1.28408 24.9999 1.28408C24.8868 1.28408 24.7763 1.29043 24.6633 1.29355C24.5464 0.861328 24.4413 0.429102 24.3133 0C23.1374 0.0339844 21.9615 0.14541 20.7991 0.34375C20.7557 0.789453 20.72 1.23506 20.6893 1.68242C18.9247 2.00645 17.2312 2.52168 15.6271 3.21074C15.3544 2.85908 15.0771 2.50977 14.7941 2.16133C13.7187 2.64492 12.6771 3.20127 11.6806 3.83115C11.8117 4.25781 11.9509 4.68379 12.0938 5.10898C10.6051 6.07617 9.23008 7.20625 7.99805 8.47451C7.61084 8.25166 7.23076 8.02012 6.83643 7.8084C6.02725 8.66338 5.27891 9.57617 4.59453 10.5363C4.87979 10.8824 5.18086 11.2096 5.47324 11.5463C4.47207 12.9956 3.63047 14.561 2.96982 16.2205C2.52646 16.1645 2.08154 16.1123 1.63662 16.0664C1.21309 17.1696 0.87168 18.3004 0.609277 19.4486C1.00752 19.6588 1.4042 19.8619 1.80332 20.0587C1.46504 21.6534 1.28418 23.3058 1.28418 25C1.28418 25.1066 1.29043 25.2142 1.29121 25.32C0.861328 25.4355 0.429102 25.5571 0 25.6866C0.0339844 26.8617 0.144727 28.0376 0.343066 29.2C0.787988 29.2428 1.23516 29.2799 1.68242 29.3107C2.00645 31.0729 2.52168 32.7688 3.21074 34.3729C2.85908 34.644 2.51055 34.9222 2.16133 35.2051C2.64414 36.2822 3.20049 37.3237 3.83105 38.3194C4.25781 38.189 4.68369 38.0515 5.10732 37.9061C6.07607 39.3973 7.20615 40.7676 8.47451 42.002C8.25166 42.3892 8.02012 42.7684 7.8084 43.1619C8.6626 43.9728 9.57607 44.7219 10.5363 45.4055C10.8824 45.1187 11.2088 44.8184 11.5446 44.526C12.9939 45.5271 14.561 46.3695 16.2205 47.0302C16.1628 47.4751 16.1098 47.92 16.0656 48.3657C17.1664 48.7878 18.2996 49.1283 19.4494 49.3907C19.658 48.9925 19.8619 48.5949 20.0586 48.1967C21.6533 48.535 23.3057 48.7151 25 48.7151C25.113 48.7151 25.2236 48.7088 25.3358 48.708C25.4536 49.1379 25.5571 49.5701 25.6852 50C26.861 49.9661 28.0377 49.8554 29.1993 49.657C29.2428 49.2113 29.2799 48.7648 29.3107 48.3176C31.073 47.9937 32.7689 47.48 34.373 46.7877C34.6434 47.1409 34.9215 47.4895 35.2043 47.8387C36.2814 47.3559 37.3222 46.7988 38.3194 46.1689C38.1891 45.743 38.0516 45.3163 37.9062 44.8911C39.3949 43.923 40.77 42.7945 42.002 41.5255C42.3892 41.7491 42.7686 41.979 43.1629 42.1916C43.9729 41.3357 44.722 40.4239 45.4048 39.4637C45.118 39.1176 44.8192 38.7912 44.5269 38.4553C45.528 37.006 46.3673 35.4382 47.0304 33.7786C47.4753 33.8371 47.9202 33.8877 48.365 33.9319C48.787 32.8335 49.1269 31.6995 49.3908 30.5505C48.9925 30.3419 48.595 30.138 48.1967 29.9413C48.535 28.3467 48.715 26.695 48.715 25ZM25 40.1165C16.6503 40.1165 9.88193 33.3497 9.88193 25C9.88193 16.6504 16.6503 9.88281 25 9.88281C33.348 9.88281 40.1181 16.6504 40.1181 25C40.1181 33.3497 33.3481 40.1165 25 40.1165Z" fill="black"/>
<path d="M25 26.4611C25.8068 26.4611 26.4611 25.8076 26.4611 25C26.4611 24.1924 25.8068 23.5381 25 23.5381C24.1916 23.5381 23.5373 24.1924 23.5373 25C23.5373 25.8076 24.1916 26.4611 25 26.4611Z" fill="black"/>
<path d="M15.2476 19.5007C15.3496 19.7749 15.5709 19.9867 15.8482 20.0775L21.0598 21.7711C21.545 21.9275 22.076 21.8445 22.4879 21.5442C22.9011 21.2439 23.1445 20.765 23.1445 20.2546V14.7798C23.1445 14.4874 23.0101 14.2108 22.7818 14.0307C22.5526 13.8489 22.2539 13.7825 21.9686 13.8489C21.9686 13.8489 22.0469 13.7897 21.5206 13.9549C19.0605 14.7301 16.9546 16.3027 15.5077 18.3707C15.2113 18.7959 15.326 18.6741 15.326 18.6741C15.1742 18.923 15.1457 19.2272 15.2476 19.5007Z" fill="black"/>
<path d="M20.9366 26.3213C20.7794 25.8353 20.3985 25.4544 19.9148 25.298L14.7071 23.6061C14.4273 23.5151 14.1255 23.5578 13.8821 23.7191C13.638 23.8811 13.4823 24.1457 13.4594 24.4365C13.4594 24.4365 13.4262 24.3442 13.4215 24.8965C13.397 27.4742 14.2425 29.9627 15.7613 31.9785C16.0742 32.3927 15.9936 32.2465 15.9936 32.2465C16.1841 32.4662 16.4646 32.5879 16.7555 32.576C17.0478 32.5633 17.3182 32.4195 17.4895 32.1824L20.709 27.7492C21.0109 27.3375 21.0938 26.8049 20.9366 26.3213Z" fill="black"/>
<path d="M26.2889 29.9287C25.9887 29.517 25.5098 29.2729 25 29.2729C24.4902 29.2729 24.0114 29.517 23.7103 29.9287L20.4933 34.358C20.321 34.5943 20.2673 34.8961 20.3455 35.1782C20.4254 35.4604 20.6276 35.6888 20.8978 35.8025C20.8978 35.8025 20.7991 35.805 21.3223 35.9803C23.768 36.7998 26.3956 36.7643 28.782 35.9416C29.2727 35.7732 29.1076 35.8049 29.1076 35.8049C29.3764 35.6918 29.5786 35.4619 29.6561 35.1814C29.7358 34.8992 29.6806 34.5974 29.509 34.3618L26.2889 29.9287Z" fill="black"/>
<path d="M35.2977 23.6044L30.0853 25.2979C29.6017 25.4544 29.2207 25.8352 29.0627 26.3213C28.9054 26.805 28.9893 27.3376 29.2896 27.7484L32.5081 32.1777C32.6788 32.4156 32.949 32.5579 33.2414 32.5721C33.5339 32.584 33.8145 32.4606 34.0057 32.2394C34.0057 32.2394 33.978 32.3335 34.3068 31.8902C35.8406 29.8182 36.6198 27.3068 36.5748 24.7844C36.5661 24.2668 36.5448 24.4335 36.5448 24.4335C36.5219 24.1419 36.3646 23.8771 36.1212 23.7159C35.8784 23.5562 35.5742 23.5136 35.2977 23.6044Z" fill="black"/>
<path d="M27.5105 21.5442C27.9239 21.843 28.4549 21.9274 28.9392 21.7711L34.147 20.0775C34.4251 19.9875 34.6464 19.7749 34.7475 19.5007C34.8487 19.2272 34.8202 18.9223 34.6677 18.6718C34.6677 18.6718 34.7491 18.7271 34.4282 18.2782C32.9323 16.1778 30.7868 14.6612 28.3711 13.9231C27.8765 13.773 28.0266 13.8441 28.0266 13.8441C27.7429 13.7777 27.4449 13.8449 27.215 14.0274C26.9874 14.2068 26.8547 14.4834 26.8547 14.7751V20.2546C26.8539 20.765 27.0988 21.2439 27.5105 21.5442Z" fill="black"/>
</g>
<defs>
<clipPath id="clip0_205_144">
<rect width="50" height="50" fill="white"/>
</clipPath>
</defs>
</svg>
